<svg width="126" height="40" viewBox="0 0 126 40" fill="none" xmlns="http://www.w3.org/2000/svg">
<path d="M0 8C0 3.58172 3.58172 0 8 0H117.5C121.918 0 125.5 3.58172 125.5 8V32C125.5 36.4183 121.918 40 117.5 40H8C3.58172 40 0 36.4183 0 32V8Z" fill="black"/>
<path d="M24.7045 20.763C24.7166 19.8431 24.9669 18.9411 25.4321 18.141C25.8972 17.3409 26.5621 16.6687 27.3648 16.1869C26.8548 15.4758 26.1821 14.8907 25.4 14.4779C24.6178 14.065 23.7479 13.836 22.8592 13.8088C20.9635 13.6146 19.1258 14.9163 18.1598 14.9163C17.1751 14.9163 15.6878 13.8281 14.0862 13.8603C13.0502 13.893 12.0406 14.1871 11.1557 14.714C10.2708 15.2408 9.54075 15.9825 9.03674 16.8668C6.85352 20.5571 8.48201 25.9808 10.5734 28.9639C11.6197 30.4246 12.8426 32.0562 14.4428 31.9984C16.0086 31.9349 16.5934 31.0235 18.4835 31.0235C20.3561 31.0235 20.9048 31.9984 22.5374 31.9616C24.2176 31.9349 25.2762 30.4944 26.2859 29.0198C27.0377 27.979 27.6162 26.8287 28 25.6115C27.0238 25.2084 26.1908 24.5337 25.6048 23.6715C25.0187 22.8093 24.7056 21.7977 24.7045 20.763Z" fill="white"/>
<path d="M21.621 11.8471C22.5372 10.7734 22.9885 9.39335 22.8792 8C21.4796 8.14352 20.1867 8.7966 19.2582 9.82911C18.8043 10.3335 18.4566 10.9203 18.235 11.556C18.0135 12.1917 17.9224 12.8638 17.9671 13.5338C18.6672 13.5408 19.3597 13.3927 19.9927 13.1005C20.6256 12.8084 21.1824 12.3798 21.621 11.8471Z" fill="white"/>
<path d="M38.2939 9.79346C38.9487 9.79346 39.4497 10.0835 39.6299 10.5537H39.6782V8.18506H40.6538V14.5H39.7046V13.7573H39.6562C39.5156 14.2275 38.9575 14.5615 38.2808 14.5615C37.2129 14.5615 36.5186 13.8013 36.5186 12.5752V11.7798C36.5186 10.5537 37.2261 9.79346 38.2939 9.79346ZM38.5664 10.5933C37.916 10.5933 37.5117 11.0767 37.5117 11.9204V12.4302C37.5117 13.2783 37.9204 13.7617 38.5884 13.7617C39.2476 13.7617 39.6782 13.2827 39.6782 12.4917V11.7886C39.6782 11.0723 39.208 10.5933 38.5664 10.5933ZM43.4092 14.5703C42.5083 14.5703 41.8887 14.0166 41.8887 13.1509C41.8887 12.3291 42.46 11.7754 43.5322 11.7754H44.7056V11.3403C44.7056 10.8086 44.3672 10.5581 43.8311 10.5581C43.3037 10.5581 43.0664 10.7778 42.9917 11.0854H42.0645C42.1216 10.3076 42.7061 9.78467 43.8618 9.78467C44.855 9.78467 45.6768 10.1978 45.6768 11.3535V14.5H44.7495V13.8979H44.7056C44.499 14.2539 44.0947 14.5703 43.4092 14.5703ZM43.7124 13.8145C44.2661 13.8145 44.7056 13.4365 44.7056 12.9312V12.4302H43.686C43.1191 12.4302 42.8687 12.7158 42.8687 13.1025C42.8687 13.5859 43.2729 13.8145 43.7124 13.8145ZM47.1226 14.5V9.85498H48.0806V10.6899H48.1289C48.2476 10.3252 48.5859 9.78467 49.5264 9.78467C50.4624 9.78467 51.0908 10.3032 51.0908 11.3623V14.5H50.1152V11.6479C50.1152 10.9404 49.7461 10.6152 49.1968 10.6152C48.4761 10.6152 48.0981 11.1689 48.0981 11.9204V14.5H47.1226ZM58.4429 9.85498C58.2451 10.501 56.8652 14.4253 56.8608 14.4385L56.7598 14.7021C56.373 15.7305 55.8589 16.1304 54.958 16.1304C54.7866 16.1304 54.5493 16.1128 54.4263 16.0864V15.3438C54.4966 15.3569 54.6724 15.3701 54.7822 15.3701C55.3008 15.3701 55.5645 15.1724 55.6787 14.6846L55.7183 14.5352L54.0615 9.85498H55.1426L56.25 13.6123H56.2896L57.4102 9.85498H58.4429ZM63.3955 9.85498V14.5H62.4375V13.7266H62.3848C62.2573 14.1001 61.8267 14.5703 61.0137 14.5703C60.0864 14.5703 59.4404 14.1309 59.4404 13.041V9.85498H60.416V12.7861C60.416 13.5244 60.8511 13.7441 61.3433 13.7441C61.9453 13.7441 62.4199 13.3003 62.4199 12.7158V9.85498H63.3955ZM65.8521 12.8389V14.5H64.8809V8.18506H65.8521V11.8677H65.896L67.6055 9.85498H68.7173L66.9639 11.8677L68.8359 14.5H67.6846L66.23 12.439L65.8521 12.8389ZM69.7412 14.5V8.18506H70.7168V14.5H69.7412ZM73.4941 14.5703C72.5933 14.5703 71.9736 14.0166 71.9736 13.1509C71.9736 12.3291 72.5449 11.7754 73.6172 11.7754H74.7905V11.3403C74.7905 10.8086 74.4521 10.5581 73.916 10.5581C73.3887 10.5581 73.1514 10.7778 73.0767 11.0854H72.1494C72.2065 10.3076 72.791 9.78467 73.9468 9.78467C74.9399 9.78467 75.7617 10.1978 75.7617 11.3535V14.5H74.8345V13.8979H74.7905C74.584 14.2539 74.1797 14.5703 73.4941 14.5703ZM73.7974 13.8145C74.3511 13.8145 74.7905 13.4365 74.7905 12.9312V12.4302H73.771C73.2041 12.4302 72.9536 12.7158 72.9536 13.1025C72.9536 13.5859 73.3579 13.8145 73.7974 13.8145ZM79.5762 14.5659C78.9258 14.5659 78.416 14.2803 78.2183 13.8013H78.1655V14.5H77.2163V8.18506H78.1919V10.5933H78.2446C78.3896 10.1099 78.9302 9.79346 79.5981 9.79346C80.6836 9.79346 81.3516 10.5581 81.3516 11.8193V12.5356C81.3516 13.7969 80.6748 14.5659 79.5762 14.5659ZM79.3081 13.7661C79.9761 13.7661 80.3584 13.2695 80.3584 12.4126V11.9644C80.3584 11.0942 79.9673 10.5933 79.2905 10.5933C78.6138 10.5933 78.1919 11.0898 78.1919 11.8809V12.5532C78.1919 13.2651 78.6533 13.7661 79.3081 13.7661ZM86.4756 9.77588C87.6885 9.77588 88.5366 10.5625 88.5366 11.8677V12.4697C88.5366 13.8188 87.6885 14.5791 86.4756 14.5791C85.2451 14.5791 84.4058 13.8276 84.4058 12.4741V11.8721C84.4058 10.6021 85.2583 9.77588 86.4756 9.77588ZM86.48 10.5625C85.7856 10.5625 85.3901 11.1426 85.3901 11.9204V12.439C85.3901 13.2168 85.7593 13.7925 86.48 13.7925C87.1919 13.7925 87.5566 13.2212 87.5566 12.439V11.9204C87.5566 11.1426 87.1743 10.5625 86.48 10.5625ZM89.8242 14.5V8.18506H90.7998V14.5H89.8242ZM92.25 8.45752C92.25 8.10596 92.5181 7.85986 92.8872 7.85986C93.2739 7.85986 93.542 8.10596 93.542 8.45752C93.542 8.80469 93.2739 9.04639 92.8872 9.04639C92.5181 9.04639 92.25 8.80469 92.25 8.45752ZM92.4082 14.5V9.85498H93.3794V14.5H92.4082ZM94.9526 14.5V9.85498H95.9106V10.6899H95.959C96.0776 10.3252 96.416 9.78467 97.3564 9.78467C98.2925 9.78467 98.9209 10.3032 98.9209 11.3623V14.5H97.9453V11.6479C97.9453 10.9404 97.5762 10.6152 97.0269 10.6152C96.3062 10.6152 95.9282 11.1689 95.9282 11.9204V14.5H94.9526ZM102.142 15.436C102.894 15.436 103.258 15.0361 103.258 14.3506V13.687H103.206C103.03 14.0913 102.555 14.4121 101.905 14.4121C100.881 14.4121 100.107 13.6826 100.107 12.4126V11.8018C100.107 10.5317 100.876 9.79346 101.905 9.79346C102.59 9.79346 103.083 10.167 103.236 10.5625H103.285V9.85498H104.229V14.3813C104.229 15.6821 103.276 16.2007 102.111 16.2007C100.859 16.2007 100.261 15.5811 100.208 14.8867H101.175C101.237 15.1987 101.593 15.436 102.142 15.436ZM102.208 10.5933C101.527 10.5933 101.101 11.1162 101.101 11.9204V12.3247C101.101 13.1289 101.562 13.6475 102.217 13.6475C102.885 13.6475 103.258 13.0938 103.258 12.4346V11.8237C103.258 11.1514 102.863 10.5933 102.208 10.5933Z" fill="white"/>
<path d="M38.2061 30.5H36.1758L40.3066 18.5029H42.5391L46.6611 30.5H44.5518L43.4883 27.1777H39.2783L38.2061 30.5ZM41.4316 20.5771H41.3525L39.7266 25.6484H43.04L41.4316 20.5771ZM52.2644 30.6318C51.0603 30.6318 50.1462 30.0605 49.654 29.208H49.5837V33.585H47.6325V21.21H49.531V22.5723H49.6013C50.1111 21.6846 51.0603 21.0869 52.3083 21.0869C54.3913 21.0869 55.8767 22.6602 55.8767 25.4375V26.2637C55.8767 29.0234 54.4089 30.6318 52.2644 30.6318ZM51.8161 29.0234C53.0554 29.0234 53.8991 28.0303 53.8991 26.1582V25.5078C53.8991 23.7061 53.1081 22.6777 51.781 22.6777C50.4187 22.6777 49.5661 23.7852 49.5661 25.499V26.1582C49.5661 27.916 50.4275 29.0234 51.8161 29.0234ZM62.183 30.6318C60.9789 30.6318 60.0649 30.0605 59.5727 29.208H59.5024V33.585H57.5512V21.21H59.4496V22.5723H59.52C60.0297 21.6846 60.9789 21.0869 62.227 21.0869C64.31 21.0869 65.7954 22.6602 65.7954 25.4375V26.2637C65.7954 29.0234 64.3276 30.6318 62.183 30.6318ZM61.7348 29.0234C62.9741 29.0234 63.8178 28.0303 63.8178 26.1582V25.5078C63.8178 23.7061 63.0268 22.6777 61.6996 22.6777C60.3373 22.6777 59.4848 23.7852 59.4848 25.499V26.1582C59.4848 27.916 60.3461 29.0234 61.7348 29.0234ZM69.8387 27.1689H71.7899C71.8778 28.2061 72.7919 29.0938 74.4882 29.0938C76.0438 29.0938 76.9667 28.3643 76.9667 27.2305C76.9667 26.3164 76.3514 25.8242 75.0682 25.5166L73.0995 25.0244C71.5526 24.6641 70.1639 23.7412 70.1639 21.79C70.1639 19.4961 72.1679 18.2393 74.497 18.2393C76.8261 18.2393 78.7684 19.4961 78.8124 21.7373H76.8964C76.8085 20.7178 76.0262 19.874 74.4706 19.874C73.0995 19.874 72.1679 20.5244 72.1679 21.6406C72.1679 22.4229 72.7128 22.9854 73.829 23.2402L75.7889 23.7236C77.5907 24.1631 78.9618 25.0156 78.9618 27.0547C78.9618 29.4102 77.0546 30.7373 74.3387 30.7373C70.9989 30.7373 69.8827 28.7861 69.8387 27.1689ZM81.3395 21.21V18.9512H83.2555V21.21H85.066V22.7744H83.2555V27.7314C83.2555 28.7422 83.6334 29.0234 84.6793 29.0234C84.8463 29.0234 85.0045 29.0234 85.1188 29.0059V30.5C84.9605 30.5264 84.5914 30.5615 84.1959 30.5615C81.9371 30.5615 81.3131 29.7529 81.3131 27.8896V22.7744H80.0299V21.21H81.3395ZM90.3529 21.0518C93.0247 21.0518 94.4749 22.9326 94.4749 25.4639V26.2109C94.4749 28.8301 93.0335 30.6582 90.3529 30.6582C87.6722 30.6582 86.2132 28.8301 86.2132 26.2109V25.4639C86.2132 22.9414 87.681 21.0518 90.3529 21.0518ZM90.3529 22.6162C88.9027 22.6162 88.182 23.8027 88.182 25.4902V26.2021C88.182 27.8633 88.8939 29.085 90.3529 29.085C91.8118 29.085 92.515 27.8721 92.515 26.2021V25.4902C92.515 23.7939 91.803 22.6162 90.3529 22.6162ZM96.1231 30.5V21.21H98.0743V22.4316H98.1446C98.3819 21.8516 99.0762 21.0781 100.368 21.0781C100.623 21.0781 100.843 21.0957 101.027 21.1309V22.8535C100.86 22.8096 100.518 22.7832 100.192 22.7832C98.628 22.7832 98.1006 23.75 98.1006 24.998V30.5H96.1231ZM105.778 30.6582C103.291 30.6582 101.709 29.0146 101.709 26.2637V25.3232C101.709 22.7305 103.256 21.0518 105.699 21.0518C108.177 21.0518 109.672 22.792 109.672 25.4111V26.2988H103.634V26.5186C103.634 28.083 104.477 29.1201 105.804 29.1201C106.798 29.1201 107.474 28.6279 107.712 27.8281H109.566C109.285 29.3311 108.072 30.6582 105.778 30.6582ZM103.634 24.9365H107.764V24.9189C107.764 23.6006 106.947 22.5635 105.708 22.5635C104.451 22.5635 103.634 23.6006 103.634 24.9189V24.9365Z" fill="white"/>
</svg>
