<svg width="148" height="25" viewBox="0 0 148 25" fill="none" xmlns="http://www.w3.org/2000/svg">
<path fill-rule="evenodd" clip-rule="evenodd" d="M5.02836 0.00012207H5.03113C7.77675 0.00646885 12.7705 0.634922 15.3693 4.77118C15.475 4.93972 15.531 5.14337 15.531 5.36018V23.614C12.3648 20.3392 7.7752 19.7748 5.03577 19.7683C4.38597 19.7667 3.85742 19.2451 3.85742 18.6055V1.16333C3.85742 0.851184 3.98045 0.557972 4.20381 0.337769C4.42472 0.119963 4.71729 0.00012207 5.02836 0.00012207ZM11.7369 8.96631V9.64503C11.278 9.08138 10.6425 8.80524 9.81869 8.80524C9.03018 8.80524 8.35941 9.10438 7.79452 9.69111C7.2414 10.2778 6.95896 10.9911 6.95896 11.8424C6.95896 12.6938 7.2414 13.4186 7.79452 14.0052C8.35941 14.5919 9.03018 14.8796 9.81869 14.8796C10.6425 14.8796 11.278 14.6035 11.7369 14.0397V14.7186H13.2551V8.96631H11.7369ZM10.1011 13.4646C9.6304 13.4646 9.24206 13.3149 8.93603 13.0159C8.63008 12.7052 8.47707 12.3141 8.47707 11.8424C8.47707 11.3708 8.63008 10.9796 8.93603 10.6805C9.24206 10.3698 9.6304 10.2203 10.1011 10.2203C10.5718 10.2203 10.9603 10.3698 11.2662 10.6805C11.5839 10.9796 11.7369 11.3708 11.7369 11.8424C11.7369 12.3141 11.5839 12.7052 11.2662 13.0159C10.9603 13.3149 10.5718 13.4646 10.1011 13.4646Z" fill="#FF6900"/>
<path d="M30.8397 3.96216H29.9863V18.5451C29.9863 20.1781 28.6401 21.5098 26.9852 21.5139C24.6616 21.5193 20.8304 21.9684 18.1169 24.5066C22.8098 23.371 27.7568 24.1092 30.5762 24.7443C30.9282 24.8235 31.292 24.7416 31.5741 24.5194C31.8551 24.2978 32.0164 23.9665 32.0164 23.6109V5.12515C32.0164 4.48389 31.4885 3.96216 30.8397 3.96216Z" fill="#FF6900"/>
<path d="M2.03003 18.6054V4.02246H1.1767C0.527996 4.02246 0 4.54421 0 5.18547V23.6708C0 24.0265 0.161234 24.3578 0.442285 24.5794C0.724111 24.8015 1.08755 24.8836 1.44014 24.8042C4.25951 24.1691 9.20667 23.4309 13.8993 24.5666C11.186 22.0285 7.35474 21.5796 5.03113 21.5741C3.37638 21.5701 2.03003 20.2385 2.03003 18.6054Z" fill="#FF6900"/>
<path fill-rule="evenodd" clip-rule="evenodd" d="M28.1593 1.16321V18.6055C28.1593 19.245 27.6308 19.7666 26.9811 19.7682C24.2417 19.7747 19.6521 20.339 16.4858 23.6139V5.36024C16.4858 5.14343 16.5418 4.9397 16.6475 4.77115C19.2463 0.634906 24.2401 0.00645242 26.9856 0H26.9885C27.2992 0 27.592 0.119841 27.8129 0.337647C28.0363 0.55785 28.1593 0.851062 28.1593 1.16321ZM20.0311 14.7185V14.0398C20.4901 14.6035 21.1256 14.8796 21.9493 14.8796C22.7379 14.8796 23.4086 14.5805 23.9736 13.9938C24.5267 13.4071 24.8091 12.6938 24.8091 11.8425C24.8091 10.9912 24.5267 10.2664 23.9736 9.67963C23.4086 9.0929 22.7379 8.8053 21.9493 8.8053C21.1256 8.8053 20.4901 9.08136 20.0311 9.64509V8.96637H18.513V14.7185H20.0311ZM21.6669 10.2204C22.1376 10.2204 22.526 10.3699 22.832 10.669C23.1379 10.9796 23.291 11.3707 23.291 11.8425C23.291 12.3141 23.1379 12.7053 22.832 13.0044C22.526 13.315 22.1376 13.4646 21.6669 13.4646C21.1962 13.4646 20.8079 13.315 20.5018 13.0044C20.1841 12.7053 20.0311 12.3141 20.0311 11.8425C20.0311 11.3707 20.1841 10.9796 20.5018 10.669C20.8079 10.3699 21.1962 10.2204 21.6669 10.2204Z" fill="#FF6900"/>
<path d="M56.8074 7.94421C58.4346 7.94421 59.7309 8.47942 60.6959 9.54984C61.6799 10.6203 62.1719 12.0539 62.1719 13.8506V22.6816H58.5104V14.1087C58.5104 13.2485 58.3023 12.5795 57.8859 12.1016C57.4696 11.6238 56.883 11.3848 56.1261 11.3848C55.2935 11.3848 54.6408 11.662 54.1676 12.2163C53.7135 12.7706 53.4864 13.5734 53.4864 14.6247V22.6816H49.8249V14.1087C49.8249 13.2485 49.6168 12.5795 49.2005 12.1016C48.7841 11.6238 48.1976 11.3848 47.4407 11.3848C46.627 11.3848 45.9742 11.6716 45.4822 12.245C45.0092 12.7993 44.7726 13.5926 44.7726 14.6247V22.6816H41.1111V8.34558H44.7726V9.86523C45.6241 8.5845 46.9392 7.94421 48.718 7.94421C50.4778 7.94421 51.7645 8.63228 52.5781 10.0086C53.5053 8.63228 54.9151 7.94421 56.8074 7.94421Z" fill="black"/>
<path d="M74.6485 16.0869V8.34546H78.31V22.6815H74.6485V21.0758C73.778 22.4139 72.3683 23.0829 70.4193 23.0829C68.8676 23.0829 67.5809 22.5573 66.559 21.506C65.5562 20.4355 65.0547 18.9828 65.0547 17.1478V8.34546H68.7162V16.6891C68.7162 17.6257 68.9622 18.352 69.4542 18.8681C69.9651 19.3842 70.6558 19.6422 71.5262 19.6422C72.4913 19.6422 73.2482 19.3459 73.797 18.7534C74.3646 18.1418 74.6485 17.2529 74.6485 16.0869Z" fill="black"/>
<path d="M89.7809 8.34562V11.901H86.5734V17.8647C86.5734 18.3617 86.6967 18.7249 86.9425 18.9543C87.1884 19.1837 87.5485 19.3175 88.0213 19.3557C88.4941 19.3748 89.0811 19.3653 89.7809 19.327V22.6816C87.3027 22.9684 85.5332 22.739 84.4734 21.9935C83.4325 21.2289 82.912 19.8527 82.912 17.8647V11.901H80.4429V8.34562H82.912V5.44975L86.5734 4.33154V8.34562H89.7809Z" fill="black"/>
<path d="M104.011 20.9039C102.573 22.3567 100.794 23.083 98.6749 23.083C96.5552 23.083 94.7767 22.3567 93.3387 20.9039C91.9006 19.4512 91.1812 17.6545 91.1812 15.5136C91.1812 13.3919 91.9006 11.6046 93.3387 10.1519C94.7956 8.68007 96.5741 7.94421 98.6749 7.94421C100.775 7.94421 102.554 8.68007 104.011 10.1519C105.468 11.6238 106.197 13.411 106.197 15.5136C106.197 17.6354 105.468 19.4321 104.011 20.9039ZM95.9213 18.3521C96.6596 19.0976 97.5772 19.4703 98.6749 19.4703C99.7726 19.4703 100.69 19.0976 101.428 18.3521C102.166 17.6067 102.535 16.6605 102.535 15.5136C102.535 14.3667 102.166 13.4206 101.428 12.675C100.69 11.9296 99.7726 11.5568 98.6749 11.5568C97.5772 11.5568 96.6596 11.9296 95.9213 12.675C95.2026 13.4397 94.8425 14.3858 94.8425 15.5136C94.8425 16.6414 95.2026 17.5876 95.9213 18.3521Z" fill="black"/>
<path d="M112.434 22.6815H108.773V1.75098H112.434V22.6815Z" fill="black"/>
<path d="M126.571 10.0373V8.34558H130.233V22.6816H126.571V20.99C125.473 22.3854 123.931 23.083 121.945 23.083C120.052 23.083 118.425 22.3567 117.062 20.9039C115.719 19.4321 115.047 17.6354 115.047 15.5136C115.047 13.411 115.719 11.6238 117.062 10.1519C118.425 8.68007 120.052 7.94421 121.945 7.94421C123.931 7.94421 125.473 8.64187 126.571 10.0373ZM119.816 18.4382C120.553 19.1836 121.49 19.5564 122.625 19.5564C123.761 19.5564 124.697 19.1836 125.436 18.4382C126.192 17.6736 126.571 16.6987 126.571 15.5136C126.571 14.3285 126.192 13.3632 125.436 12.6178C124.697 11.8531 123.761 11.4709 122.625 11.4709C121.49 11.4709 120.553 11.8531 119.816 12.6178C119.077 13.3632 118.708 14.3285 118.708 15.5136C118.708 16.6987 119.077 17.6736 119.816 18.4382Z" fill="#FF6900"/>
<path d="M144.339 10.0373V8.34558H148V22.6816H144.339V20.99C143.241 22.3854 141.699 23.083 139.712 23.083C137.82 23.083 136.192 22.3567 134.83 20.9039C133.486 19.4321 132.814 17.6354 132.814 15.5136C132.814 13.411 133.486 11.6238 134.83 10.1519C136.192 8.68007 137.82 7.94421 139.712 7.94421C141.699 7.94421 143.241 8.64187 144.339 10.0373ZM137.583 18.4382C138.321 19.1836 139.258 19.5564 140.393 19.5564C141.528 19.5564 142.465 19.1836 143.203 18.4382C143.96 17.6736 144.339 16.6987 144.339 15.5136C144.339 14.3285 143.96 13.3632 143.203 12.6178C142.465 11.8531 141.528 11.4709 140.393 11.4709C139.258 11.4709 138.321 11.8531 137.583 12.6178C136.845 13.3632 136.477 14.3285 136.477 15.5136C136.477 16.6987 136.845 17.6736 137.583 18.4382Z" fill="#FF6900"/>
</svg>
