<svg width="54" height="15" viewBox="0 0 54 15" fill="none" xmlns="http://www.w3.org/2000/svg">
<path d="M7.58704 15C7.21805 14.998 6.85134 14.9427 6.49854 14.8358C6.11164 14.7185 5.73768 14.563 5.38231 14.3716C4.89635 14.1246 4.43211 13.8379 3.99443 13.5146C3.60049 13.2096 3.22816 12.8782 2.88005 12.5229C2.40854 12.0568 1.9687 11.58 1.60701 11.1421C1.20698 10.676 0.861575 10.1666 0.577384 9.62377L0.553359 9.57418V9.57262L0.547815 9.56114V9.55853V9.55592L0.51983 9.49668L0.517982 9.49276L0.516134 9.48885L0.489733 9.43169L0.486301 9.42439V9.4223L0.466765 9.3795L0.460692 9.36619L0.456204 9.35601L0.452508 9.34792V9.34636L0.43218 9.30069L0.430068 9.29547L0.424523 9.29051L0.400499 9.23519L0.396539 9.22605L0.373042 9.16994L0.371458 9.16629L0.369874 9.16264L0.347697 9.10783L0.345057 9.10131L0.323673 9.04729V9.04546L0.320769 9.03815L0.30044 8.98596L0.298592 8.98074L0.296216 8.97474C0.28988 8.95804 0.283808 8.94133 0.277471 8.92411V8.92072L0.273775 8.91054C0.266647 8.89123 0.261103 8.87531 0.256087 8.86122V8.85808L0.252127 8.84634L0.231534 8.79467L0.226518 8.77953L0.210414 8.73151L0.207774 8.72395L0.205662 8.71638C0.199853 8.69863 0.195101 8.68324 0.190613 8.66914L0.186125 8.65427L0.173189 8.61199L0.170813 8.6039V8.60233L0.168173 8.5932L0.154972 8.55145L0.15286 8.5444L0.150748 8.5337C0.14626 8.51726 0.1423 8.5029 0.138604 8.48933L0.135964 8.48151L0.133588 8.47289C0.130156 8.45958 0.126195 8.44523 0.122235 8.42905L0.118275 8.41339V8.40974C0.115371 8.39799 0.111411 8.38364 0.107715 8.36694L0.102171 8.34632C0.0990027 8.33354 0.0958346 8.32023 0.0924025 8.30405L0.0902904 8.29413L0.0879144 8.28369C0.0847463 8.2696 0.0818422 8.25551 0.0789381 8.24167L0.07577 8.22236C0.073658 8.21245 0.0718099 8.20253 0.0696979 8.19261V8.18739V8.18296V8.18139L0.0657378 8.16051V8.1579L0.0601936 8.12737C0.0583456 8.11771 0.0567615 8.10806 0.0551775 8.0984L0.0498974 8.06656C0.0483133 8.05743 0.0469933 8.0483 0.0454092 8.04047C0.0438252 8.03264 0.0419771 8.01776 0.0401291 8.00628L0.038545 7.99506L0.036961 7.98384C0.0351129 7.97053 0.0332649 7.95774 0.0316809 7.94443L0.0256087 7.92408V7.92042C0.0229686 7.90529 0.0229686 7.89276 0.0203285 7.88128C0.0203285 7.87423 0.0187445 7.86718 0.0179525 7.86014V7.85753C0.0166324 7.845 0.0153124 7.83143 0.0139924 7.8189C0.0139924 7.8116 0.0126723 7.80403 0.0118803 7.79672V7.79516C0.0108243 7.78437 0.00985627 7.77358 0.00897624 7.7628C0.00897624 7.75314 0.0073922 7.74374 0.00686419 7.73409C0.00633617 7.72443 0.00554415 7.71504 0.00475213 7.70564C0.00475213 7.69494 0.00343209 7.68424 0.00290408 7.67328C0.00237606 7.66232 0.00290408 7.65528 0.00132004 7.64719C-0.000264007 7.6391 0.00132004 7.62553 0 7.61483V7.61326C0 7.60413 0 7.59499 0 7.58586C0 7.57673 0 7.57151 0 7.56446V7.55402C0 7.5441 0 7.53393 0 7.52401C0 7.51409 0 7.50783 0 7.49974V7.43893C0 7.42641 0 7.41388 0 7.40135C0 7.39248 0 7.38361 0 7.37526C0 7.36691 0 7.35307 0 7.34185C0 7.33559 0 7.32959 0 7.32332V7.31419C0 7.3001 -2.45876e-10 7.28809 0.00184805 7.27609C0.00184805 7.26904 0.00184805 7.26173 0.00184805 7.25469C0.00184805 7.24321 0.00316809 7.23094 0.00422411 7.21633C0.00422411 7.20954 0.00422411 7.20249 0.00580816 7.19571C0.00580816 7.18266 0.00792021 7.16961 0.00897624 7.15656V7.14378V7.13464C0.0102083 7.12159 0.0115283 7.10855 0.0129363 7.0955L0.0150484 7.07488V7.0707C0.0150484 7.05896 0.0176885 7.04617 0.0198005 7.03104C0.0198005 7.02634 0.0198005 7.02164 0.0216486 7.01695V7.01016V7.00755C0.0232326 6.9945 0.0250807 6.98145 0.0269287 6.9684L0.0295688 6.94988C0.0316809 6.93578 0.0337929 6.92169 0.035905 6.90786L0.038545 6.8922V6.88985C0.0406571 6.8768 0.0430332 6.86245 0.0459372 6.84601L0.0491053 6.82774C0.0517454 6.81261 0.0546495 6.79721 0.0575536 6.78181L0.0599296 6.76981V6.76328C0.0628337 6.74815 0.0660018 6.73249 0.0691699 6.71735L0.0718099 6.7043V6.70196C0.074978 6.68682 0.0784101 6.67116 0.0818422 6.65576V6.65081L0.0839543 6.64115C0.0871223 6.6268 0.0908184 6.61166 0.0950426 6.59391L0.0984747 6.58008C0.102171 6.56521 0.106131 6.54903 0.111147 6.52919L0.112995 6.52215L0.114579 6.51641C0.119067 6.49892 0.123819 6.48117 0.129099 6.46186L0.13042 6.4569L0.132004 6.45142C0.137284 6.43237 0.142036 6.41541 0.146524 6.39923L0.149956 6.38723C0.154444 6.37183 0.159988 6.35356 0.165532 6.33503V6.33294L0.168437 6.32355C0.174245 6.30476 0.180053 6.28649 0.185333 6.26979L0.188237 6.26066C0.194045 6.24265 0.200381 6.22334 0.207774 6.20142L0.209358 6.19646V6.19463C0.215958 6.1748 0.223086 6.1547 0.229422 6.13617L0.23259 6.12756C0.23919 6.10851 0.246319 6.0892 0.252919 6.07119L0.254503 6.06702L0.256087 6.06284C0.264271 6.04092 0.271135 6.02291 0.277471 6.00569L0.280112 5.99864C0.287768 5.97907 0.295688 5.95871 0.303872 5.9381L0.305456 5.93418C0.313376 5.91409 0.322089 5.89295 0.331857 5.86946L0.333705 5.86503C0.342681 5.84337 0.351129 5.82301 0.360106 5.80318L0.36301 5.79639C0.370666 5.77838 0.379114 5.75907 0.38941 5.73585L0.392579 5.7288C0.400499 5.71105 0.409211 5.69122 0.420563 5.66669L0.422939 5.66147C0.43482 5.63537 0.444852 5.61397 0.454092 5.5944C1.00428 4.42526 1.82693 3.61103 2.62397 2.82395L2.63981 2.80829C3.1034 2.35003 3.53611 1.95884 3.96248 1.61253C4.45013 1.2122 4.96971 0.851497 5.51616 0.533943C5.81994 0.355259 6.1459 0.216306 6.48586 0.120568C6.77721 0.0409611 7.07805 0.000409041 7.38032 0C7.7868 0.00290034 8.19013 0.0707584 8.57469 0.200946C8.94267 0.325228 9.29879 0.481463 9.6389 0.667821C10.1821 0.956181 10.7032 1.28344 11.1981 1.64698C11.6639 1.98994 12.104 2.36576 12.515 2.7715C12.944 3.20046 13.3366 3.6635 13.689 4.15594C14.0183 4.59559 14.2901 5.07461 14.498 5.58161C14.6334 5.93618 14.7485 6.29803 14.8427 6.66542C14.9249 6.98475 14.9711 7.31208 14.9806 7.64145C14.9871 7.96422 14.9475 8.28629 14.8631 8.59816C14.7636 8.95499 14.6223 9.29911 14.442 9.62351C14.1852 10.0995 13.8847 10.5513 13.5444 10.973C13.2054 11.3869 12.8426 11.7812 12.4577 12.1539C12.0419 12.5648 11.6039 12.9532 11.1456 13.3173C10.6659 13.6991 10.1628 14.0512 9.63916 14.3716C9.02924 14.7692 8.31752 14.9871 7.58704 15ZM8.71039 13.3376C8.40577 13.5149 8.07673 13.6474 7.73356 13.7312C8.07673 13.6474 8.40578 13.5149 8.71039 13.3376ZM4.2286 12.739C4.26055 12.7604 4.29355 12.782 4.32655 12.8032C4.29012 12.7797 4.25817 12.7585 4.2286 12.739ZM3.11396 11.8196L3.1702 11.8736L3.11396 11.8196ZM3.65175 6.56495L3.63432 6.60226V6.60514L3.61875 6.63958L3.61716 6.6435L3.60238 6.67716V6.67899V6.68082L3.58786 6.71526V6.71761L3.57334 6.75337V6.75493L3.56014 6.7886V6.79095V6.79303L3.54826 6.82461L3.54667 6.82853L3.53532 6.85984V6.86245V6.86454C3.53162 6.87446 3.52819 6.88516 3.52423 6.8969V6.89951C3.51974 6.91282 3.51631 6.92274 3.51341 6.93239L3.51182 6.93735L3.50258 6.96736L3.50073 6.97362C3.49774 6.98319 3.49484 6.99276 3.49202 7.00233V7.00572V7.00912L3.48384 7.03782L3.47037 7.04617L3.46879 7.05244L3.46245 7.07592L3.46061 7.08297C3.45823 7.09237 3.45585 7.10176 3.45348 7.11116L3.45163 7.11872L3.44556 7.14482L3.44397 7.15213L3.44186 7.16204L3.43843 7.17796V7.18214V7.18658L3.43394 7.20824V7.21241L3.42866 7.22598L3.42549 7.24268L3.42391 7.25156V7.25547V7.26095C3.42259 7.26904 3.42127 7.27687 3.41995 7.28496L3.41836 7.29488L3.41493 7.31836L3.41335 7.32828C3.41335 7.33611 3.41124 7.34368 3.41018 7.35151V7.35751V7.36351C3.41018 7.37082 3.40833 7.37813 3.40754 7.38543V7.39274V7.39927V7.40631C3.40754 7.41127 3.40754 7.41623 3.40622 7.42093V7.43319V7.43972C3.40622 7.44467 3.40622 7.44989 3.40622 7.45485C3.40622 7.45981 3.40622 7.46242 3.40622 7.46633C3.40622 7.47025 3.40622 7.4799 3.4049 7.48669C3.4049 7.4893 3.4049 7.49191 3.4049 7.49478V7.49948C3.4049 7.50626 3.4049 7.51305 3.4049 7.52009C3.4049 7.52714 3.4049 7.53001 3.4049 7.53497C3.4049 7.54071 3.4049 7.54671 3.4049 7.55245V7.5689C3.4049 7.57542 3.4049 7.58194 3.4049 7.58847V7.6357C3.4049 7.64118 3.4049 7.64693 3.4049 7.65241C3.4049 7.65789 3.4049 7.66415 3.4049 7.67015V7.68529C3.4049 7.69155 3.4049 7.69781 3.4049 7.70408V7.71165V7.71921C3.4049 7.72339 3.4049 7.7273 3.4049 7.73148V7.73774V7.74583V7.75366C3.4049 7.75888 3.4049 7.76436 3.4049 7.76958V7.77845V7.78811V7.80011C3.4049 7.80716 3.40622 7.81421 3.40701 7.82125C3.40701 7.82412 3.40701 7.82673 3.40701 7.8296V7.8343C3.40701 7.84161 3.4086 7.84865 3.40965 7.8557V7.86118V7.86849L3.41124 7.87945L3.41256 7.88937L3.4144 7.90189V7.90816L3.41625 7.92016V7.92642V7.93399L3.41784 7.94286V7.95043V7.958L3.41942 7.96661L3.42285 7.98436V7.98932L3.4247 7.99923V8.00419L3.42734 8.01776L3.42945 8.02768C3.43104 8.03551 3.43271 8.04325 3.43447 8.05091L3.43684 8.06213L3.44054 8.07805L3.44212 8.08535V8.09083V8.09579L3.44767 8.11876L3.45031 8.12946C3.45269 8.13885 3.4548 8.14668 3.45665 8.15373L3.45929 8.16364L3.46589 8.18739L3.46721 8.19209L3.46853 8.19679C3.47064 8.20462 3.47301 8.21218 3.47513 8.22001L3.47803 8.23019L3.48516 8.25394L3.48648 8.25838V8.26229L3.49466 8.28839V8.2923V8.29648L3.49889 8.309L3.50337 8.32231L3.50522 8.32753V8.33067L3.51209 8.35076L3.5142 8.35676L3.5171 8.36485V8.36851L3.52529 8.39147L3.52793 8.39904L3.53849 8.42722L3.54007 8.43114V8.43375L3.55142 8.46324L3.55354 8.46846L3.56542 8.49847L3.567 8.50212L3.57756 8.52822L3.57941 8.53266V8.53448V8.53683C3.58363 8.54701 3.58812 8.55745 3.59261 8.56789L3.59419 8.5718L3.60739 8.6026L3.60924 8.60703L3.61954 8.63026L3.62244 8.63678L3.62508 8.64252L3.63907 8.67358V8.67541L3.64066 8.6788L3.65544 8.71064V8.71325V8.71507L3.65967 8.72395L3.67102 8.74822V8.74978L3.67656 8.761L3.68765 8.78423C4.03237 9.37965 4.4629 9.92232 4.96571 10.3952C5.36467 10.8152 5.83515 11.1627 6.35571 11.4218C6.72802 11.6375 7.1491 11.7575 7.58044 11.7708C7.98621 11.7637 8.38158 11.6426 8.72042 11.4218C9.2882 11.0718 9.81349 10.6585 10.286 10.1901C10.7251 9.781 11.0971 9.30678 11.3885 8.78449C11.8214 7.98384 11.7385 7.40135 11.4196 6.54015C11.1611 5.96595 10.7969 5.4442 10.3456 5.00148C9.87364 4.53702 9.33544 4.14331 8.74814 3.83286C8.36765 3.60871 7.93688 3.48129 7.49437 3.46202C7.1308 3.46582 6.77504 3.56673 6.46474 3.75404C5.87834 4.10398 5.34113 4.52875 4.86697 5.0174L4.85852 5.02575C4.36509 5.4621 3.95647 5.98391 3.6528 6.56547L3.65175 6.56495ZM2.94368 11.6538L3.04163 11.7499L2.94368 11.6538ZM11.5413 11.0823C11.4645 11.1606 11.3829 11.2426 11.2961 11.3287C11.1944 11.4292 11.0901 11.5291 10.9843 11.6275C11.0899 11.5291 11.1955 11.4292 11.2961 11.3287C11.3835 11.242 11.4648 11.1601 11.5413 11.0818V11.0823ZM13.0842 9.01336C13.0657 9.04911 13.0467 9.08539 13.0272 9.12166C12.8996 9.35826 12.7594 9.58806 12.6074 9.8101C12.7594 9.58806 12.8996 9.35827 13.0272 9.12166C13.047 9.08487 13.0649 9.04859 13.0845 9.01258L13.0842 9.01336ZM13.259 6.12417C13.3545 6.41483 13.4246 6.71309 13.4683 7.01564C13.4251 6.71273 13.3551 6.41416 13.259 6.12339V6.12417ZM10.942 2.76628C11.0809 2.88945 11.2156 3.01568 11.3462 3.14494C11.7205 3.51915 12.0631 3.92309 12.3706 4.35271C12.5042 4.53956 12.6248 4.7225 12.7291 4.89683C12.3413 4.25987 11.877 3.67163 11.3462 3.14494C11.216 3.01533 11.0813 2.88911 10.942 2.76628ZM8.53509 1.15557C8.63145 1.2015 8.73045 1.25161 8.83737 1.3085C9.13385 1.46508 9.42558 1.63837 9.70411 1.82026C9.42611 1.63758 9.13438 1.46639 8.83764 1.3085C8.73045 1.25265 8.63171 1.20046 8.53509 1.15557ZM3.82916 8.34632C3.77937 8.23179 3.73739 8.11409 3.70349 7.99401C3.661 7.84502 3.6368 7.69151 3.63142 7.5368C3.64609 7.81627 3.71323 8.09061 3.82942 8.3458L3.82916 8.34632Z" fill="#53B7D1"/>
<path d="M23.6579 10.8935C23.9995 10.8935 24.3139 10.8868 24.6015 10.8734C24.8891 10.86 25.1858 10.8312 25.4915 10.7868C25.5181 10.7806 25.546 10.781 25.5724 10.788C25.5989 10.7949 25.6231 10.8082 25.6431 10.8267C25.6631 10.8451 25.6783 10.8682 25.6872 10.8938C25.696 10.9194 25.6983 10.9467 25.6939 10.9734V11.9729C25.6939 12.0883 25.6222 12.1684 25.4781 12.2128C25.1262 12.3204 24.7651 12.3962 24.3994 12.4393C24.0106 12.4909 23.6188 12.5175 23.2265 12.5191C22.5962 12.5362 21.9686 12.432 21.3785 12.2125C20.8994 12.0256 20.477 11.72 20.1518 11.3252C19.8215 10.9067 19.5868 10.4225 19.4639 9.90577C19.3129 9.28196 19.2407 8.64209 19.2486 8.00071V7.38769C19.2408 6.74668 19.311 6.10705 19.4577 5.4826C19.5758 4.96677 19.8058 4.48247 20.1319 4.0632C20.4537 3.66758 20.8743 3.36174 21.3522 3.1759C21.9423 2.95631 22.5699 2.85218 23.2002 2.86928C23.9331 2.8745 24.6606 2.9914 25.3574 3.21585C25.4193 3.2311 25.4755 3.26349 25.5193 3.30925C25.5485 3.35253 25.5627 3.404 25.5598 3.45592V4.4155C25.5642 4.44221 25.5617 4.46956 25.5528 4.49515C25.544 4.52074 25.5288 4.54379 25.5088 4.56224C25.4887 4.58068 25.4646 4.59396 25.4381 4.60091C25.4117 4.60786 25.3838 4.60826 25.3572 4.60209C25.1053 4.56729 24.8311 4.54058 24.5347 4.52197C24.2383 4.50335 23.9372 4.49466 23.6313 4.49588C23.2617 4.48563 22.8937 4.54444 22.5462 4.66918C22.2614 4.7792 22.0151 4.96915 21.8382 5.21565C21.6443 5.49839 21.5133 5.81861 21.454 6.15513C21.3716 6.59687 21.3332 7.04555 21.3393 7.4947V7.90782C21.3331 8.35717 21.3737 8.80596 21.4605 9.2471C21.5235 9.58281 21.6592 9.90107 21.8583 10.1801C22.0421 10.4239 22.2924 10.6111 22.5797 10.7197C22.9251 10.8434 23.2909 10.9022 23.6581 10.893L23.6579 10.8935ZM27.2581 3.2435C27.2581 3.10127 27.325 3.03028 27.4602 3.03028H29.1319C29.1612 3.02614 29.1912 3.02881 29.2193 3.03806C29.2474 3.0473 29.2729 3.06289 29.2938 3.08358C29.3147 3.10427 29.3303 3.12947 29.3397 3.15723C29.349 3.18499 29.3519 3.21454 29.3477 3.2435V10.1331C29.3327 10.3336 29.3797 10.5338 29.4825 10.7072C29.5534 10.779 29.6404 10.8332 29.7365 10.8656C29.8325 10.8981 29.9348 10.9077 30.0353 10.8938H33.2299C33.2592 10.8897 33.289 10.8923 33.3171 10.9016C33.3452 10.9108 33.3707 10.9264 33.3916 10.9471C33.4125 10.9678 33.4284 10.993 33.4377 11.0208C33.4471 11.0485 33.4497 11.0781 33.4455 11.107V12.0932C33.4455 12.262 33.3693 12.3508 33.2165 12.3597C32.7223 12.404 32.1559 12.4418 31.5175 12.4729C30.8791 12.5041 30.2185 12.5197 29.5354 12.5197C29.175 12.5261 28.815 12.4903 28.4631 12.4129C28.2031 12.3576 27.9604 12.2412 27.7554 12.0736C27.5716 11.9118 27.4382 11.7015 27.371 11.4674C27.2881 11.1679 27.2497 10.8582 27.2568 10.5478L27.2581 3.2435ZM36.7899 12.1329C36.7944 12.1637 36.7916 12.1951 36.7816 12.2245C36.7717 12.254 36.7549 12.2808 36.7327 12.3028C36.7104 12.3248 36.6833 12.3414 36.6535 12.3512C36.6237 12.361 36.5921 12.3638 36.561 12.3594H34.9292C34.8981 12.3638 34.8665 12.361 34.8367 12.3512C34.8068 12.3414 34.7797 12.3248 34.7575 12.3028C34.7353 12.2808 34.7185 12.254 34.7085 12.2245C34.6986 12.1951 34.6956 12.1637 34.7 12.1329V3.2701C34.7 3.11021 34.7764 3.03028 34.9292 3.03028H36.561C36.7139 3.03028 36.7901 3.11021 36.7899 3.2701V12.1329ZM43.0998 10.8933C43.4416 10.8933 43.7563 10.8866 44.0439 10.8732C44.3315 10.8598 44.6281 10.8309 44.9336 10.7865C44.9603 10.7804 44.9879 10.7808 45.0143 10.7878C45.0408 10.7947 45.0652 10.808 45.0852 10.8264C45.1053 10.8449 45.1205 10.8679 45.1293 10.8935C45.1382 10.9191 45.1404 10.9465 45.136 10.9732V11.9727C45.136 12.0882 45.0642 12.1681 44.9202 12.2125C44.5684 12.3201 44.2072 12.3959 43.8415 12.439C43.4527 12.4906 43.061 12.5173 42.6687 12.5189C42.0384 12.5359 41.4108 12.4318 40.8206 12.2122C40.3415 12.0253 39.9189 11.7198 39.5937 11.3249C39.2639 10.9064 39.0298 10.4221 38.9074 9.90551C38.7562 9.28172 38.6837 8.64185 38.6916 8.00046V7.38744C38.6837 6.74642 38.7539 6.10679 38.9007 5.48235C39.0188 4.96655 39.2491 4.48227 39.5751 4.06295C39.8969 3.66732 40.3175 3.36148 40.7954 3.17564C41.3855 2.95608 42.0131 2.85192 42.6434 2.86899C43.3763 2.87426 44.104 2.99115 44.8009 3.21556C44.8626 3.23087 44.9185 3.26329 44.9623 3.309C44.9914 3.35228 45.0057 3.40374 45.0027 3.45566V4.41525C45.0072 4.44194 45.0049 4.46929 44.996 4.49489C44.9872 4.52049 44.9722 4.54353 44.9522 4.56198C44.9322 4.58044 44.9077 4.59373 44.8813 4.60069C44.8549 4.60764 44.8272 4.60803 44.8006 4.60183C44.5487 4.56704 44.2745 4.54033 43.9779 4.52171C43.6813 4.5031 43.3803 4.49441 43.0748 4.49562C42.7051 4.48535 42.3367 4.54416 41.9891 4.66892C41.7043 4.77895 41.4583 4.9689 41.2814 5.21539C41.0877 5.49825 40.9568 5.81842 40.8972 6.15488C40.815 6.59664 40.7765 7.04527 40.7825 7.49441V7.90753C40.7763 8.35688 40.8168 8.80569 40.9034 9.24685C40.9664 9.58261 41.1024 9.90089 41.3017 10.1798C41.4854 10.4238 41.7355 10.611 42.0229 10.7195C42.3682 10.8432 42.7339 10.902 43.1011 10.8928L43.0998 10.8933ZM53.4682 3.03003C53.4982 3.02717 53.5282 3.03325 53.5546 3.04749C53.581 3.06172 53.6026 3.08346 53.6165 3.10989C53.6294 3.13822 53.6338 3.16962 53.6291 3.20037C53.6244 3.23111 53.611 3.25987 53.5902 3.28316L50.7047 7.5213L53.9676 12.1193C53.9851 12.1405 53.9961 12.166 53.9996 12.1931C54.0031 12.2202 53.9991 12.2477 53.9877 12.2725C53.9751 12.3018 53.9531 12.3261 53.9251 12.3417C53.8971 12.3574 53.8647 12.3635 53.8328 12.3591H51.9319C51.8534 12.363 51.7751 12.3494 51.7027 12.3192C51.6405 12.2849 51.5894 12.2341 51.5547 12.1726L48.7904 8.01428V12.1324C48.7948 12.1631 48.7921 12.1945 48.7821 12.2239C48.7721 12.2534 48.7553 12.2802 48.7331 12.3022C48.7109 12.3242 48.6838 12.3407 48.654 12.3505C48.6242 12.3604 48.5925 12.3632 48.5614 12.3589H46.9294C46.8983 12.3632 46.8667 12.3604 46.8369 12.3506C46.8071 12.3407 46.7799 12.3242 46.7577 12.3022C46.7355 12.2802 46.7189 12.2534 46.709 12.2239C46.6991 12.1945 46.696 12.1631 46.7005 12.1324V3.26959C46.7005 3.1097 46.7768 3.02977 46.9294 3.02977H48.5614C48.714 3.02977 48.7902 3.1097 48.7904 3.26959V7.02756L51.3655 3.18922C51.3999 3.13946 51.4465 3.09886 51.5006 3.07096C51.5546 3.04307 51.6149 3.02873 51.6759 3.02923L53.4682 3.03003Z" fill="#231F20"/>
</svg>
