<svg width="73" height="26" viewBox="0 0 73 26" fill="none" xmlns="http://www.w3.org/2000/svg">
<path fill-rule="evenodd" clip-rule="evenodd" d="M20.2124 6.2003L20.8437 6.79999C20.884 6.83827 20.9254 6.87751 20.9677 6.91765C21.536 7.45652 22.2749 8.15714 22.8329 8.85191C23.5228 9.71085 24.3968 11.1032 24.3968 13C24.3968 14.8968 23.5228 16.2892 22.8329 17.1481C22.2749 17.8429 21.536 18.5435 20.9677 19.0823C20.9254 19.1225 20.884 19.1617 20.8437 19.2L20.2124 19.7997C20.1721 19.838 20.1308 19.8773 20.0885 19.9175C19.5212 20.4573 18.7837 21.1592 18.0523 21.6893C17.1481 22.3446 15.6824 23.1749 13.6855 23.1749C11.6887 23.1749 10.223 22.3446 9.3188 21.6893C8.58741 21.1592 7.84986 20.4573 7.28259 19.9175C7.24033 19.8773 7.19902 19.838 7.15872 19.7997L6.52741 19.2C6.48712 19.1617 6.44573 19.1225 6.4034 19.0823C5.83511 18.5435 5.09624 17.8429 4.5382 17.1481C3.84831 16.2892 2.97429 14.8968 2.97429 13C2.97429 11.1032 3.84831 9.71085 4.5382 8.85191C5.09624 8.15714 5.83511 7.45652 6.4034 6.91765C6.44573 6.87751 6.48712 6.83827 6.52741 6.79999L7.15872 6.2003C7.19901 6.16202 7.24033 6.12271 7.28258 6.0825C7.84986 5.54266 8.58741 4.84079 9.3188 4.31069C10.223 3.65535 11.6887 2.82509 13.6855 2.82509C15.6824 2.82509 17.1481 3.65535 18.0523 4.31069C18.7837 4.84079 19.5212 5.54266 20.0885 6.0825C20.1308 6.12271 20.1721 6.16202 20.2124 6.2003ZM13.6855 7.69627C12.8359 7.69627 12.1522 8.34576 10.7847 9.64475L10.1534 10.2444C8.78597 11.5434 8.10224 12.1929 8.10224 13C8.10224 13.8071 8.78597 14.4566 10.1534 15.7556L10.7847 16.3553C12.1522 17.6542 12.8359 18.3037 13.6855 18.3037C14.5352 18.3037 15.2189 17.6542 16.5864 16.3553L17.2177 15.7556C18.5851 14.4566 19.2688 13.8071 19.2688 13C19.2688 12.1929 18.5851 11.5434 17.2177 10.2444L16.5864 9.64475C15.2189 8.34576 14.5352 7.69627 13.6855 7.69627Z" fill="#43B5D0"/>
<path d="M37.492 7.33203C38.175 7.33203 38.7792 7.42571 39.3045 7.61308C39.8404 7.80044 40.3447 8.08149 40.8176 8.45622L39.5882 9.83187C39.2625 9.5952 38.942 9.4177 38.6268 9.29936C38.3116 9.18103 37.9753 9.12186 37.6181 9.12186C36.8826 9.12186 36.2994 9.41277 35.8686 9.99459C35.4484 10.5764 35.2382 11.4738 35.2382 12.6867C35.2382 13.8799 35.4484 14.7675 35.8686 15.3493C36.2994 15.9212 36.8931 16.2072 37.6496 16.2072C38.0489 16.2072 38.4114 16.1382 38.7371 16.0001C39.0628 15.8522 39.4148 15.6451 39.7931 15.3789L40.9436 16.7693C40.5339 17.1539 40.0348 17.4695 39.4464 17.716C38.8685 17.9625 38.2275 18.0858 37.5235 18.0858C36.5148 18.0858 35.6375 17.8787 34.8915 17.4645C34.1455 17.0504 33.5623 16.439 33.142 15.6303C32.7322 14.8118 32.5273 13.8306 32.5273 12.6867C32.5273 11.5724 32.7375 10.6109 33.1578 9.80229C33.5886 8.99366 34.177 8.38226 34.923 7.96809C35.6795 7.54405 36.5359 7.33203 37.492 7.33203Z" fill="white"/>
<path d="M44.682 7.58349V15.9114H48.9375L48.6695 17.8343H42.0973V7.58349H44.682Z" fill="white"/>
<path d="M52.7626 7.58349V17.8343H50.1778V7.58349H52.7626Z" fill="white"/>
<path d="M59.2555 7.33203C59.9385 7.33203 60.5427 7.42571 61.068 7.61308C61.6039 7.80044 62.1083 8.08149 62.5811 8.45622L61.3517 9.83187C61.026 9.5952 60.7055 9.4177 60.3903 9.29936C60.0751 9.18103 59.7389 9.12186 59.3816 9.12186C58.6461 9.12186 58.063 9.41277 57.6322 9.99459C57.2119 10.5764 57.0017 11.4738 57.0017 12.6867C57.0017 13.8799 57.2119 14.7675 57.6322 15.3493C58.063 15.9212 58.6566 16.2072 59.4131 16.2072C59.8124 16.2072 60.1749 16.1382 60.5006 16.0001C60.8264 15.8522 61.1784 15.6451 61.5566 15.3789L62.7072 16.7693C62.2974 17.1539 61.7983 17.4695 61.2099 17.716C60.632 17.9625 59.991 18.0858 59.2871 18.0858C58.2784 18.0858 57.401 17.8787 56.655 17.4645C55.909 17.0504 55.3258 16.439 54.9055 15.6303C54.4958 14.8118 54.2909 13.8306 54.2909 12.6867C54.2909 11.5724 54.501 10.6109 54.9213 9.80229C55.3521 8.99366 55.9405 8.38226 56.6865 7.96809C57.443 7.54405 58.2994 7.33203 59.2555 7.33203Z" fill="white"/>
<path d="M66.4456 7.58349V17.8343H63.8608V7.58349H66.4456ZM72.7184 7.58349L69.2352 12.1838L73.0021 17.8343H70.0075L66.5244 12.3613L69.9918 7.58349H72.7184Z" fill="white"/>
</svg>
