<svg width="38" height="38" viewBox="0 0 38 38" fill="none" xmlns="http://www.w3.org/2000/svg">
<path d="M22.479 24.8825H15.6973V12.7852H22.479V24.8825Z" fill="#FF5F00"/>
<path d="M16.1319 18.8323C16.1319 16.3783 17.2894 14.1923 19.0922 12.7836C17.7739 11.7535 16.1102 11.1387 14.3021 11.1387C10.0216 11.1387 6.55176 14.5832 6.55176 18.8323C6.55176 23.0814 10.0216 26.5259 14.3021 26.5259C16.1102 26.5259 17.7739 25.9111 19.0922 24.8809C17.2894 23.4722 16.1319 21.2863 16.1319 18.8323Z" fill="#EB001B"/>
<path d="M31.6258 18.8304C31.6258 23.0794 28.156 26.5239 23.8755 26.5239C22.0674 26.5239 20.4037 25.9091 19.085 24.879C20.8881 23.4703 22.0457 21.2843 22.0457 18.8304C22.0457 16.3763 20.8881 14.1904 19.085 12.7817C20.4037 11.7516 22.0674 11.1367 23.8755 11.1367C28.156 11.1367 31.6258 14.5812 31.6258 18.8304Z" fill="#F79E1B"/>
</svg>
