<svg width="56" height="16" viewBox="0 0 56 16" fill="none" xmlns="http://www.w3.org/2000/svg">
<g clip-path="url(#clip0_14066_37801)">
<path fill-rule="evenodd" clip-rule="evenodd" d="M55.6858 6.62724C56.0825 7.18328 56.1224 8.05962 55.7013 8.73879C55.3254 9.34536 53.0756 11.673 52.3434 12.421C51.7088 13.0707 50.8522 13.7213 50.0091 13.7213H32.3559C29.9701 13.7213 29.8262 12.929 29.8262 11.1375V3.87027C29.8262 2.04058 30.3774 1.51172 32.0066 1.51172H50.0091C50.8522 1.51172 51.6025 1.93331 52.4642 2.79172C53.1959 3.52015 55.3814 6.19946 55.6858 6.62724Z" fill="#33CCCC"/>
<path fill-rule="evenodd" clip-rule="evenodd" d="M55.6858 6.62724C56.0825 7.18328 56.1224 8.05962 55.7013 8.73879C55.3254 9.34536 53.0756 11.673 52.3434 12.421C51.7088 13.0707 50.8522 13.7213 50.0091 13.7213H32.3559C29.9701 13.7213 29.8262 12.929 29.8262 11.1375V3.87027C29.8262 2.04058 30.3774 1.51172 32.0066 1.51172H50.0091C50.8522 1.51172 51.6025 1.93331 52.4642 2.79172C53.1959 3.52015 55.3814 6.19946 55.6858 6.62724Z" fill="url(#paint0_linear_14066_37801)"/>
<path fill-rule="evenodd" clip-rule="evenodd" d="M33.8288 4.3223V4.27445C33.8288 4.0408 33.8087 3.80984 33.4179 3.80984H31.9426C31.5997 3.80984 31.5781 3.9956 31.5781 4.28421V6.20476C32.2962 5.1988 33.0925 4.73139 33.8288 4.3223ZM43.7258 11.262V11.1589H43.7269V6.53645C43.7269 4.59796 42.857 3.62882 41.1172 3.62902C40.635 3.62458 40.1611 3.75149 39.7483 3.9956C39.3341 4.24012 38.9362 4.58167 38.5545 5.02026C38.3669 4.54364 38.084 4.19262 37.7058 3.9672C37.3276 3.74178 36.8375 3.62905 36.2356 3.62902C35.5389 3.62902 34.7289 3.8681 34.1548 4.33073C34.0264 4.45675 31.5778 6.3447 31.5778 8.2837V11.2431C31.5778 11.3372 31.5314 11.6943 31.9398 11.6943H33.4757C33.9532 11.6943 33.9066 11.388 33.9066 11.262V6.47565C34.1658 6.13878 34.6956 5.30683 35.5559 5.30683C35.8862 5.30683 36.124 5.41631 36.2694 5.63527C36.4148 5.85422 36.4878 6.22134 36.4884 6.73662V10.475H36.4866V11.2432C36.4866 11.3373 36.4402 11.6944 36.8485 11.6944H38.3648C38.8426 11.6944 38.796 11.3881 38.796 11.2621V11.159H38.7977V6.47585C39.0755 6.13899 39.629 5.30704 40.4466 5.30704C40.783 5.30704 41.0257 5.41652 41.1745 5.63547C41.3233 5.85442 41.3977 6.22154 41.3975 6.73683V10.4752H41.3959V11.2434C41.3959 11.3375 41.3498 11.6946 41.7584 11.6946H43.2947C43.7725 11.6944 43.7258 11.388 43.7258 11.262ZM52.1844 9.38266C51.6384 10.8219 50.3302 11.6262 48.7093 11.6262C46.3615 11.6262 44.8106 10.059 44.8106 7.70841C44.8106 5.38617 46.4206 3.70292 48.6362 3.70292C50.828 3.70292 52.298 5.19819 52.3913 7.60682C52.4032 7.91458 52.3115 8.18648 51.9189 8.18648H46.937C46.9666 9.47805 47.6023 10.1747 48.7244 10.1747C49.4088 10.1747 49.8143 9.88567 50.1674 9.31917C50.3209 9.07266 50.6356 9.08638 50.6356 9.08638H51.9189C52.1284 9.08623 52.2212 9.28676 52.1844 9.3825V9.38266ZM48.6362 5.19727C47.705 5.19727 47.0552 5.8357 46.937 6.88108H50.2752C50.1866 5.96669 49.6841 5.19727 48.6362 5.19727Z" fill="white"/>
<path fill-rule="evenodd" clip-rule="evenodd" d="M9.16959 1.57875C8.97224 1.27069 8.71624 1.00271 8.41556 0.789415C8.11487 0.582466 7.78467 0.420203 7.43556 0.307891C7.04781 0.184169 6.6473 0.102661 6.24136 0.0648435C5.77692 0.020104 5.31051 -0.00151081 4.84388 8.19925e-05H0.754325C0.38659 8.19925e-05 0.00112369 0.236679 0.00112369 0.68285V7.17887C0.519177 8.26154 1.52832 9.41095 2.67564 9.96028V8.67195C2.67564 7.99213 3.19826 7.84025 3.41443 7.84025H4.62361C6.28922 7.84025 7.56047 7.4976 8.43739 6.81234C9.3143 6.12805 9.75271 5.11162 9.75271 3.76303C9.7552 3.37336 9.70905 2.98485 9.61536 2.60615C9.52218 2.24306 9.37176 1.89643 9.16959 1.57875ZM6.78647 4.91493C6.64528 5.155 6.43466 5.34872 6.18126 5.47175C5.9066 5.6001 5.6099 5.67711 5.30642 5.69879C4.9759 5.72765 4.63459 5.74212 4.28248 5.74217H3.13339C2.8523 5.74217 2.67564 5.51802 2.67564 5.18735V2.53149C2.67564 2.23363 2.87387 2.10868 3.11156 2.10868H4.28248C4.6639 2.10868 5.02159 2.11946 5.35557 2.14103C5.65616 2.15446 5.95135 2.22428 6.22513 2.3467C6.46914 2.46049 6.6711 2.64564 6.80317 2.87663C6.94234 3.11417 7.01193 3.44941 7.01203 3.88234C7.01203 4.32191 6.93684 4.66611 6.78647 4.91493ZM2.67564 10.3801C1.41378 9.88617 0.567814 9.29697 0.00112369 8.71284V11.8488C0.00112369 11.8488 -0.0455433 12.3603 0.462605 12.3603H2.24678C2.73621 12.3603 2.67585 11.8488 2.67585 11.8488V10.3801H2.67564ZM27.9609 3.41743H26.3596C26.0342 3.41743 25.8198 3.55142 25.6907 3.902C25.5617 4.25258 23.8645 8.88305 23.8645 8.88305C23.8645 8.88305 22.2409 4.34822 22.1132 3.99709C21.9854 3.64595 21.7756 3.41743 21.3976 3.41743H19.9263C19.4073 3.41743 19.4073 3.81682 19.4716 3.97519C19.5238 4.10319 21.5387 9.51304 22.3061 11.5739C22.4871 12.0605 22.5585 12.2069 22.5641 12.3872C22.5697 12.5675 22.3826 12.9459 22.2534 13.1631C22.194 13.2622 22.1258 13.3561 22.0496 13.4435C23.5541 13.0023 25.288 11.4011 26.1847 9.66659C27.0714 7.24927 28.2406 4.05601 28.2914 3.89265C28.3729 3.62807 28.3721 3.41743 27.9609 3.41743ZM20.8904 13.9035C20.7514 13.9011 20.6126 13.8913 20.4747 13.8741C20.306 13.8522 19.9901 13.8831 19.9901 14.154V15.3651C19.9901 15.8274 20.2157 15.8582 20.3399 15.8856C20.7136 15.9619 21.0946 15.9979 21.4763 15.9931C21.9822 15.9931 22.4223 15.903 22.7968 15.7227C23.1749 15.5394 23.5118 15.2839 23.7877 14.9712C24.0919 14.6231 24.349 14.2379 24.5526 13.8253C24.7761 13.382 24.9907 12.8936 25.1963 12.3602C25.1963 12.3602 25.2845 12.1191 25.4297 11.7242C24.988 12.161 22.9062 14.0947 20.8904 13.9035ZM18.4858 4.85514C18.3989 4.65272 18.2802 4.46486 18.134 4.29839C17.9883 4.1386 17.8216 3.99853 17.6382 3.88189C17.4403 3.75584 17.2304 3.64899 17.0113 3.56285C16.7877 3.47729 16.5576 3.40868 16.3233 3.35764C16.0568 3.30048 15.7865 3.26254 15.5144 3.24412C15.2205 3.22269 14.8902 3.21188 14.5235 3.21171C12.0978 3.21171 10.7165 3.96273 10.3798 5.46479C10.2702 5.93087 10.7409 5.95825 10.7409 5.95825H12.2331C12.6227 5.95825 12.606 5.83528 12.795 5.49018C12.8631 5.3024 12.9856 5.13813 13.1476 5.01753C13.434 4.80142 13.8632 4.69335 14.4353 4.69331C14.9858 4.69331 15.3857 4.79773 15.6351 5.00656C15.8845 5.21539 16.0312 5.5326 16.0754 5.95825C16.0754 6.45181 15.9182 6.78111 15.3092 6.78111C13.8243 6.72828 12.2286 6.89285 11.3299 7.39759C10.4312 7.90232 9.9232 8.88909 9.9232 9.9488C9.9232 10.3811 10.0021 10.7595 10.1599 11.0842C10.3128 11.4026 10.5389 11.682 10.8204 11.9005C11.1191 12.1287 11.4615 12.296 11.8273 12.3925C12.2431 12.5042 12.6727 12.5589 13.1038 12.5551C13.7497 12.5551 14.3202 12.4757 14.8156 12.3171C15.3108 12.1587 16.0772 11.6364 16.1748 11.5602V11.8386C16.1748 12.1145 16.2605 12.3605 16.5965 12.3605H18.3318C18.6831 12.3605 18.7611 12.1145 18.7611 11.8117V6.57483C18.7642 6.2493 18.7422 5.92401 18.6952 5.60173C18.658 5.34517 18.5876 5.0943 18.4858 4.85514ZM16.1195 9.98969C16.1195 9.98969 15.6714 10.9015 14.0722 10.9015C13.6322 10.9015 13.2745 10.8042 12.9991 10.6097C12.7237 10.4151 12.5861 10.1123 12.5863 9.70128C12.5863 9.16744 12.8101 8.7906 13.2579 8.57082C13.7052 8.35119 14.6009 8.22573 15.272 8.24112C15.9431 8.25651 16.1195 8.67195 16.1195 8.95878V9.98989V9.98969Z" fill="#231F20"/>
</g>
<defs>
<linearGradient id="paint0_linear_14066_37801" x1="64.649" y1="5.03705" x2="61.3566" y2="25.3371" gradientUnits="userSpaceOnUse">
<stop offset="0.47231" stop-color="#00CCCC"/>
<stop offset="1" stop-color="#3399FF"/>
</linearGradient>
<clipPath id="clip0_14066_37801">
<rect width="56" height="16" fill="white"/>
</clipPath>
</defs>
</svg>
