<svg width="71" height="21" viewBox="0 0 71 21" fill="none" xmlns="http://www.w3.org/2000/svg">
<path d="M11.8073 2.03079C11.5549 1.63064 11.2258 1.28214 10.8382 1.00454C10.4467 0.742333 10.0178 0.538297 9.56532 0.39906C9.07372 0.241512 8.56616 0.136565 8.05149 0.0860561C7.44917 0.0285434 6.84425 0.00114136 6.23909 0.0039566H1.00092C0.879499 -0.00727841 0.75701 0.00547261 0.640711 0.0414543C0.524411 0.077436 0.416666 0.135916 0.323859 0.213431C0.231051 0.290946 0.155069 0.385919 0.100414 0.492723C0.045758 0.599527 0.0135406 0.715991 0.00566982 0.835214C0.00566982 0.835214 0.00566982 0.866001 0.00566982 0.881395V9.21449C0.731901 10.741 1.93791 11.9997 3.44714 12.8063V11.1336C3.43565 11.0045 3.45025 10.8745 3.49012 10.7509C3.52999 10.6274 3.59434 10.5128 3.67949 10.4137C3.76463 10.3145 3.86891 10.2328 3.98633 10.1732C4.10376 10.1136 4.23204 10.0773 4.36382 10.0663H5.93527C8.07943 10.0663 9.71548 9.6267 10.8434 8.74755C11.9714 7.8684 12.5441 6.56507 12.5616 4.83756C12.5634 4.33973 12.5036 3.84351 12.3835 3.35977C12.2637 2.88992 12.0693 2.44145 11.8073 2.03079ZM8.73769 6.31535C8.55501 6.62328 8.28346 6.87143 7.95721 7.02859C7.60369 7.19399 7.22173 7.29319 6.831 7.32107C6.40181 7.37343 5.96968 7.39913 5.53717 7.39804H4.02858C3.66715 7.39804 3.44191 7.11069 3.44191 6.68993V3.25202C3.4367 3.17659 3.44857 3.10096 3.47667 3.03055C3.50477 2.96013 3.54841 2.89667 3.60447 2.8447C3.66052 2.79273 3.72761 2.75354 3.80092 2.72993C3.87424 2.70631 3.95198 2.69886 4.02858 2.70811H5.53717C6.02607 2.70811 6.48703 2.72179 6.92005 2.74916C7.30597 2.7673 7.68474 2.85788 8.03578 3.01598C8.35876 3.15684 8.62819 3.39384 8.80579 3.6933C9.00633 4.09483 9.09831 4.54005 9.07294 4.98637C9.08312 5.44898 8.96741 5.90591 8.73769 6.31022V6.31535ZM3.45238 13.3092C2.16063 12.8527 0.984876 12.128 0.00566982 11.1849V15.2129C-0.00529961 15.2896 -0.000317661 15.3677 0.0203162 15.4425C0.0409501 15.5173 0.0768098 15.5872 0.12574 15.6481C0.17467 15.709 0.235659 15.7595 0.305043 15.7967C0.374426 15.8339 0.450771 15.857 0.529486 15.8646H2.89714C3.52572 15.8646 3.45238 15.2078 3.45238 15.2078V13.3092ZM35.9919 4.39115H33.949C33.754 4.37866 33.5608 4.43413 33.4036 4.54777C33.2464 4.6614 33.1353 4.82585 33.0899 5.01203L30.717 11.4158C30.717 11.4158 28.6218 5.58159 28.4646 5.13004C28.4205 4.92169 28.305 4.73436 28.1374 4.59906C27.9697 4.46375 27.7599 4.38859 27.5427 4.38602H25.6622C24.9917 4.38602 24.9917 4.89914 25.0808 5.09926C25.1698 5.29937 27.7418 12.206 28.7475 14.8486C28.9059 15.1739 29.017 15.5193 29.0775 15.8748C29.0123 16.2257 28.877 16.5605 28.6794 16.86C28.6029 16.987 28.5153 17.1072 28.4175 17.2192C30.3556 16.6548 32.608 14.5971 33.7395 12.3753C34.8814 9.29659 36.3847 5.19162 36.4528 4.98124C36.5262 4.65797 36.5262 4.39115 35.9919 4.39115ZM26.8879 17.8452C26.7127 17.8406 26.5379 17.8269 26.3641 17.8041C26.1494 17.7734 25.7408 17.8041 25.7408 18.1633V19.7027C25.7408 20.2928 26.0341 20.3338 26.186 20.3749C26.6712 20.4791 27.1665 20.5308 27.6632 20.5288C28.2501 20.544 28.8327 20.4263 29.3656 20.185C29.8532 19.9438 30.2861 19.6087 30.6385 19.1998C31.038 18.7523 31.3762 18.2555 31.6442 17.722C31.934 17.1542 32.2099 16.5265 32.4718 15.8389L32.7756 15.023C32.168 15.6131 29.4861 18.0915 26.8879 17.8452ZM23.7974 6.23325C23.6861 5.97397 23.5341 5.73331 23.3469 5.52002C23.1577 5.32243 22.9428 5.14993 22.7079 5.00689C22.4541 4.83761 22.1839 4.69323 21.9012 4.57587C21.6134 4.46661 21.3174 4.37912 21.016 4.31418C20.671 4.23942 20.3208 4.18968 19.9683 4.16537C19.5912 4.12775 19.1686 4.10893 18.7007 4.10893C15.5787 4.10893 13.8013 5.0736 13.3682 7.00294C13.3498 7.07485 13.3474 7.14983 13.3614 7.22271C13.3753 7.2956 13.4052 7.36465 13.449 7.42513C13.4928 7.4856 13.5495 7.53605 13.6151 7.57301C13.6808 7.60997 13.7538 7.63255 13.8292 7.63921H15.7516C16.2754 7.63921 16.2754 7.48014 16.4745 7.03886C16.5617 6.79861 16.7182 6.58829 16.9249 6.43337C17.4161 6.12279 17.9971 5.97692 18.5802 6.01774C19.1241 5.9633 19.6703 6.09571 20.1255 6.39232C20.4726 6.70979 20.6778 7.14868 20.6964 7.61355C20.6964 8.24982 20.4974 8.67058 19.6907 8.67058C17.7788 8.60388 15.7254 8.81426 14.5678 9.46592C13.9979 9.80668 13.5301 10.289 13.2118 10.8639C12.8936 11.4388 12.7361 12.0859 12.7554 12.7396C12.7422 13.2489 12.8479 13.7543 13.0644 14.2174C13.2684 14.6199 13.5641 14.971 13.9287 15.2437C14.3115 15.5495 14.7533 15.7764 15.2278 15.9107C15.7638 16.0529 16.3173 16.122 16.8726 16.116C17.6196 16.1274 18.3638 16.0235 19.0778 15.8081C19.7089 15.5548 20.3054 15.2256 20.8536 14.828V15.1872C20.8536 15.5413 20.9636 15.8594 21.3774 15.8594H23.6036C24.0541 15.8594 24.1589 15.5464 24.1589 15.1564V8.43968C24.1615 8.02073 24.1318 7.60219 24.0698 7.18766C24.0204 6.85957 23.9289 6.5389 23.7974 6.23325ZM20.754 12.832C20.754 12.832 20.1779 14.0122 18.135 14.0122C17.6451 14.0343 17.1608 13.9031 16.7521 13.6376C16.5722 13.5008 16.4301 13.3221 16.3386 13.1178C16.2471 12.9135 16.2092 12.69 16.2283 12.4677C16.2058 12.1691 16.2763 11.8709 16.4307 11.6125C16.585 11.3541 16.8158 11.1477 17.0926 11.0207C17.9189 10.7097 18.8007 10.5648 19.6855 10.5948C19.8208 10.5748 19.9591 10.5837 20.0906 10.621C20.2221 10.6583 20.3438 10.7231 20.4473 10.8109C20.5509 10.8986 20.6338 11.0073 20.6903 11.1295C20.7469 11.2516 20.7758 11.3843 20.775 11.5184L20.754 12.832Z" fill="white"/>
<path d="M70.6055 8.51132C70.8635 8.91793 71.0003 9.38717 71.0003 9.86596C71.0003 10.3447 70.8635 10.814 70.6055 11.2206C70.0816 12.0005 67.2269 14.9869 66.284 15.9464C65.4668 16.7777 64.3616 17.6192 63.2668 17.6192H40.5908C37.5212 17.6192 37.3379 16.593 37.3379 14.3045V4.97078C37.3379 2.62581 38.045 1.94336 40.1455 1.94336H63.3192C64.4035 1.94336 65.3725 2.48727 66.4621 3.58535C67.4154 4.52436 70.2283 7.95715 70.6055 8.51132Z" fill="#33CCCC"/>
<path d="M42.4854 5.55112V5.49468C42.4854 5.19191 42.4854 4.89941 41.9616 4.89941H40.06C39.6147 4.89941 39.5938 5.13547 39.5938 5.50494V7.9681C40.3438 6.94515 41.3361 6.11577 42.4854 5.55112Z" fill="white"/>
<path d="M55.2189 14.4571V14.3237V8.38176C55.2189 5.89483 54.098 4.65137 51.856 4.65137C51.232 4.65861 50.6225 4.83632 50.096 5.16449C49.5159 5.51896 48.9977 5.96248 48.5612 6.47808C48.3637 5.92081 47.9798 5.44525 47.4717 5.12857C46.8939 4.81661 46.2399 4.66576 45.5807 4.69242C44.6112 4.69599 43.6701 5.01351 42.904 5.59551C42.7364 5.75971 39.5883 8.16112 39.5883 10.6652V14.4674C39.5883 14.5854 39.5254 15.0472 40.0545 15.0472H42.0292C42.6421 15.0472 42.5845 14.6521 42.5845 14.4879V8.33045C42.9145 7.8943 43.5902 6.85266 44.7059 6.85266C44.8844 6.83675 45.064 6.86785 45.2261 6.94272C45.3881 7.0176 45.5269 7.13354 45.6279 7.27855C45.8519 7.71664 45.9497 8.20628 45.9107 8.69477V13.4925V14.4776C45.9107 14.5957 45.8479 15.0575 46.3769 15.0575H48.3308C48.9436 15.0575 48.886 14.6624 48.886 14.4982V14.3648V8.30993C49.2422 7.87377 49.9336 6.83213 51.0075 6.83213C51.188 6.81766 51.3693 6.84929 51.5336 6.92393C51.6979 6.99858 51.8397 7.11369 51.9451 7.25803C52.1727 7.69501 52.2724 8.18517 52.2332 8.67424V13.4719V14.4571C52.2332 14.5751 52.1703 15.037 52.6994 15.037H54.6742C55.2923 15.0062 55.2189 14.6162 55.2189 14.4571Z" fill="white"/>
<path d="M66.1101 12.0424C65.7745 12.9264 65.1596 13.6823 64.3549 14.2001C63.5503 14.7179 62.5979 14.9706 61.6364 14.9213C58.619 14.9213 56.6074 12.9097 56.6074 9.89232C56.6074 6.87495 58.7028 4.76074 61.5316 4.76074C64.3604 4.76074 66.2463 6.67995 66.3668 9.77429C66.3668 10.1694 66.2673 10.5184 65.7591 10.5184H59.3576C59.3996 12.1759 60.2115 13.0842 61.6574 13.0842C62.0412 13.0936 62.4198 12.9952 62.7484 12.8006C63.077 12.606 63.3419 12.3233 63.5118 11.986C63.5787 11.8905 63.6688 11.8129 63.774 11.76C63.8791 11.7072 63.9961 11.6808 64.1142 11.6832H65.7644C65.8139 11.6809 65.8633 11.6896 65.9089 11.7086C65.9545 11.7275 65.9952 11.7563 66.0279 11.7928C66.0607 11.8293 66.0846 11.8725 66.0979 11.9193C66.1112 11.9661 66.1136 12.0152 66.1049 12.063L66.1101 12.0424ZM61.5421 6.67482C60.3425 6.67482 59.5305 7.49074 59.3524 8.83521H63.648C63.538 7.66008 62.8884 6.67482 61.5421 6.67482Z" fill="white"/>
</svg>
