<svg width="126" height="40" viewBox="0 0 126 40" fill="none" xmlns="http://www.w3.org/2000/svg">
<path d="M0 8C0 3.58172 3.58172 0 8 0H117.5C121.918 0 125.5 3.58172 125.5 8V32C125.5 36.4183 121.918 40 117.5 40H8C3.58172 40 0 36.4183 0 32V8Z" fill="white"/>
<path d="M17.8051 19.4617L8.08984 30.0059C8.09076 30.0078 8.09076 30.0106 8.09167 30.0125C8.39005 31.1574 9.41203 32 10.6256 32C11.1111 32 11.5664 31.8656 11.957 31.6305L11.988 31.6118L22.9232 25.1593L17.8051 19.4617Z" fill="#EA4335"/>
<path d="M27.6332 17.6662L27.624 17.6597L22.9029 14.8612L17.584 19.7013L22.922 25.1582L27.6177 22.3878C28.4407 21.9324 29.0001 21.045 29.0001 20.0223C29.0001 19.0052 28.4489 18.1225 27.6332 17.6662Z" fill="#FBBC04"/>
<path d="M8.08942 9.99325C8.03102 10.2135 8 10.4449 8 10.6838V29.3163C8 29.5552 8.03102 29.7866 8.09034 30.0059L18.1386 19.7313L8.08942 9.99325Z" fill="#4285F4"/>
<path d="M17.8762 20L22.904 14.8594L11.9815 8.3836C11.5846 8.14005 11.1211 8.00009 10.6256 8.00009C9.41197 8.00009 8.38816 8.84456 8.08978 9.99043C8.08978 9.99136 8.08887 9.9923 8.08887 9.99323L17.8762 20Z" fill="#34A853"/>
<path d="M38.2939 9.29346C38.9487 9.29346 39.4497 9.5835 39.6299 10.0537H39.6782V7.68506H40.6538V14H39.7046V13.2573H39.6562C39.5156 13.7275 38.9575 14.0615 38.2808 14.0615C37.2129 14.0615 36.5186 13.3013 36.5186 12.0752V11.2798C36.5186 10.0537 37.2261 9.29346 38.2939 9.29346ZM38.5664 10.0933C37.916 10.0933 37.5117 10.5767 37.5117 11.4204V11.9302C37.5117 12.7783 37.9204 13.2617 38.5884 13.2617C39.2476 13.2617 39.6782 12.7827 39.6782 11.9917V11.2886C39.6782 10.5723 39.208 10.0933 38.5664 10.0933ZM43.4092 14.0703C42.5083 14.0703 41.8887 13.5166 41.8887 12.6509C41.8887 11.8291 42.46 11.2754 43.5322 11.2754H44.7056V10.8403C44.7056 10.3086 44.3672 10.0581 43.8311 10.0581C43.3037 10.0581 43.0664 10.2778 42.9917 10.5854H42.0645C42.1216 9.80762 42.7061 9.28467 43.8618 9.28467C44.855 9.28467 45.6768 9.69775 45.6768 10.8535V14H44.7495V13.3979H44.7056C44.499 13.7539 44.0947 14.0703 43.4092 14.0703ZM43.7124 13.3145C44.2661 13.3145 44.7056 12.9365 44.7056 12.4312V11.9302H43.686C43.1191 11.9302 42.8687 12.2158 42.8687 12.6025C42.8687 13.0859 43.2729 13.3145 43.7124 13.3145ZM47.1226 14V9.35498H48.0806V10.1899H48.1289C48.2476 9.8252 48.5859 9.28467 49.5264 9.28467C50.4624 9.28467 51.0908 9.80322 51.0908 10.8623V14H50.1152V11.1479C50.1152 10.4404 49.7461 10.1152 49.1968 10.1152C48.4761 10.1152 48.0981 10.6689 48.0981 11.4204V14H47.1226ZM58.4429 9.35498C58.2451 10.001 56.8652 13.9253 56.8608 13.9385L56.7598 14.2021C56.373 15.2305 55.8589 15.6304 54.958 15.6304C54.7866 15.6304 54.5493 15.6128 54.4263 15.5864V14.8438C54.4966 14.8569 54.6724 14.8701 54.7822 14.8701C55.3008 14.8701 55.5645 14.6724 55.6787 14.1846L55.7183 14.0352L54.0615 9.35498H55.1426L56.25 13.1123H56.2896L57.4102 9.35498H58.4429ZM63.3955 9.35498V14H62.4375V13.2266H62.3848C62.2573 13.6001 61.8267 14.0703 61.0137 14.0703C60.0864 14.0703 59.4404 13.6309 59.4404 12.541V9.35498H60.416V12.2861C60.416 13.0244 60.8511 13.2441 61.3433 13.2441C61.9453 13.2441 62.4199 12.8003 62.4199 12.2158V9.35498H63.3955ZM65.8521 12.3389V14H64.8809V7.68506H65.8521V11.3677H65.896L67.6055 9.35498H68.7173L66.9639 11.3677L68.8359 14H67.6846L66.23 11.939L65.8521 12.3389ZM69.7412 14V7.68506H70.7168V14H69.7412ZM73.4941 14.0703C72.5933 14.0703 71.9736 13.5166 71.9736 12.6509C71.9736 11.8291 72.5449 11.2754 73.6172 11.2754H74.7905V10.8403C74.7905 10.3086 74.4521 10.0581 73.916 10.0581C73.3887 10.0581 73.1514 10.2778 73.0767 10.5854H72.1494C72.2065 9.80762 72.791 9.28467 73.9468 9.28467C74.9399 9.28467 75.7617 9.69775 75.7617 10.8535V14H74.8345V13.3979H74.7905C74.584 13.7539 74.1797 14.0703 73.4941 14.0703ZM73.7974 13.3145C74.3511 13.3145 74.7905 12.9365 74.7905 12.4312V11.9302H73.771C73.2041 11.9302 72.9536 12.2158 72.9536 12.6025C72.9536 13.0859 73.3579 13.3145 73.7974 13.3145ZM79.5762 14.0659C78.9258 14.0659 78.416 13.7803 78.2183 13.3013H78.1655V14H77.2163V7.68506H78.1919V10.0933H78.2446C78.3896 9.60986 78.9302 9.29346 79.5981 9.29346C80.6836 9.29346 81.3516 10.0581 81.3516 11.3193V12.0356C81.3516 13.2969 80.6748 14.0659 79.5762 14.0659ZM79.3081 13.2661C79.9761 13.2661 80.3584 12.7695 80.3584 11.9126V11.4644C80.3584 10.5942 79.9673 10.0933 79.2905 10.0933C78.6138 10.0933 78.1919 10.5898 78.1919 11.3809V12.0532C78.1919 12.7651 78.6533 13.2661 79.3081 13.2661ZM86.4756 9.27588C87.6885 9.27588 88.5366 10.0625 88.5366 11.3677V11.9697C88.5366 13.3188 87.6885 14.0791 86.4756 14.0791C85.2451 14.0791 84.4058 13.3276 84.4058 11.9741V11.3721C84.4058 10.1021 85.2583 9.27588 86.4756 9.27588ZM86.48 10.0625C85.7856 10.0625 85.3901 10.6426 85.3901 11.4204V11.939C85.3901 12.7168 85.7593 13.2925 86.48 13.2925C87.1919 13.2925 87.5566 12.7212 87.5566 11.939V11.4204C87.5566 10.6426 87.1743 10.0625 86.48 10.0625ZM89.8242 14V7.68506H90.7998V14H89.8242ZM92.25 7.95752C92.25 7.60596 92.5181 7.35986 92.8872 7.35986C93.2739 7.35986 93.542 7.60596 93.542 7.95752C93.542 8.30469 93.2739 8.54639 92.8872 8.54639C92.5181 8.54639 92.25 8.30469 92.25 7.95752ZM92.4082 14V9.35498H93.3794V14H92.4082ZM94.9526 14V9.35498H95.9106V10.1899H95.959C96.0776 9.8252 96.416 9.28467 97.3564 9.28467C98.2925 9.28467 98.9209 9.80322 98.9209 10.8623V14H97.9453V11.1479C97.9453 10.4404 97.5762 10.1152 97.0269 10.1152C96.3062 10.1152 95.9282 10.6689 95.9282 11.4204V14H94.9526ZM102.142 14.936C102.894 14.936 103.258 14.5361 103.258 13.8506V13.187H103.206C103.03 13.5913 102.555 13.9121 101.905 13.9121C100.881 13.9121 100.107 13.1826 100.107 11.9126V11.3018C100.107 10.0317 100.876 9.29346 101.905 9.29346C102.59 9.29346 103.083 9.66699 103.236 10.0625H103.285V9.35498H104.229V13.8813C104.229 15.1821 103.276 15.7007 102.111 15.7007C100.859 15.7007 100.261 15.0811 100.208 14.3867H101.175C101.237 14.6987 101.593 14.936 102.142 14.936ZM102.208 10.0933C101.527 10.0933 101.101 10.6162 101.101 11.4204V11.8247C101.101 12.6289 101.562 13.1475 102.217 13.1475C102.885 13.1475 103.258 12.5938 103.258 11.9346V11.3237C103.258 10.6514 102.863 10.0933 102.208 10.0933Z" fill="black"/>
<path d="M93.5181 30.4097H95.1469V19.3981H93.5181V30.4097ZM108.189 23.3646L106.322 28.1388H106.266L104.328 23.3646H102.573L105.479 30.0371L103.823 33.749H105.521L110 23.3646H108.189ZM98.9519 29.1588C98.4176 29.1588 97.6739 28.8902 97.6739 28.2234C97.6739 27.3742 98.6001 27.0483 99.4005 27.0483C100.116 27.0483 100.454 27.2042 100.889 27.4165C100.762 28.4365 99.892 29.1588 98.9519 29.1588ZM99.1483 23.1241C97.969 23.1241 96.7469 23.6482 96.2424 24.8101L97.6879 25.4188C97.9969 24.8101 98.5721 24.611 99.1762 24.611C100.019 24.611 100.875 25.121 100.889 26.0283V26.1411C100.594 25.971 99.9627 25.7165 99.1902 25.7165C97.632 25.7165 96.0451 26.5806 96.0451 28.1952C96.0451 29.6689 97.323 30.6184 98.7546 30.6184C99.8501 30.6184 100.454 30.1225 100.833 29.5411H100.889V30.3912H102.461V26.1692C102.461 24.2146 101.015 23.1241 99.1483 23.1241ZM89.0821 24.7053H86.7655V20.9308H89.0821C90.2998 20.9308 90.9911 21.9482 90.9911 22.8176C90.9911 23.6711 90.2998 24.7053 89.0821 24.7053ZM89.0402 19.3981H85.1375V30.4097H86.7655V26.2379H89.0402C90.8453 26.2379 92.6199 24.9184 92.6199 22.8176C92.6199 20.7168 90.8453 19.3981 89.0402 19.3981ZM67.7583 29.1606C66.6332 29.1606 65.6913 28.2102 65.6913 26.9047C65.6913 25.5852 66.6332 24.6198 67.7583 24.6198C68.8695 24.6198 69.7406 25.5852 69.7406 26.9047C69.7406 28.2102 68.8695 29.1606 67.7583 29.1606ZM69.6289 23.9812H69.5722C69.2064 23.5417 68.5038 23.1444 67.6178 23.1444C65.7611 23.1444 64.0599 24.7898 64.0599 26.9047C64.0599 29.0047 65.7611 30.6369 67.6178 30.6369C68.5038 30.6369 69.2064 30.2396 69.5722 29.7851H69.6289V30.3251C69.6289 31.7582 68.8695 32.5246 67.6457 32.5246C66.6471 32.5246 66.0282 31.8005 65.7751 31.1901L64.3549 31.7864C64.7626 32.78 65.8458 34 67.6457 34C69.5582 34 71.1757 32.8646 71.1757 30.0978V23.3708H69.6289V23.9812ZM72.3008 30.4097H73.9323V19.3973H72.3008V30.4097ZM76.3362 26.777C76.2943 25.3298 77.4474 24.5916 78.2766 24.5916C78.9243 24.5916 79.4725 24.9176 79.6549 25.3862L76.3362 26.777ZM81.3989 25.528C81.0899 24.6912 80.1472 23.1444 78.2208 23.1444C76.3083 23.1444 74.7196 24.6621 74.7196 26.8907C74.7196 28.9906 76.2943 30.6369 78.4032 30.6369C80.1053 30.6369 81.0899 29.5869 81.4976 28.9765L80.2319 28.1247C79.8103 28.7493 79.2333 29.1606 78.4032 29.1606C77.5739 29.1606 76.983 28.7774 76.6033 28.0261L81.5674 25.9534L81.3989 25.528ZM41.8501 24.2939V25.883H45.6184C45.5058 26.777 45.2107 27.4297 44.7612 27.8834C44.2121 28.4374 43.3541 29.0479 41.8501 29.0479C39.5291 29.0479 37.7152 27.1602 37.7152 24.8189C37.7152 22.4767 39.5291 20.5899 41.8501 20.5899C43.1018 20.5899 44.0157 21.0867 44.6905 21.7254L45.8017 20.604C44.8589 19.6959 43.6081 19 41.8501 19C38.6719 19 36 21.6117 36 24.8189C36 28.0261 38.6719 30.6369 41.8501 30.6369C43.5653 30.6369 44.8589 30.0688 45.8715 29.0047C46.9129 27.9547 47.2358 26.4793 47.2358 25.2866C47.2358 24.9176 47.2079 24.5775 47.1512 24.2939H41.8501ZM51.5208 29.1606C50.3957 29.1606 49.425 28.2243 49.425 26.8907C49.425 25.5421 50.3957 24.6198 51.5208 24.6198C52.6451 24.6198 53.6158 25.5421 53.6158 26.8907C53.6158 28.2243 52.6451 29.1606 51.5208 29.1606ZM51.5208 23.1444C49.4669 23.1444 47.7936 24.7194 47.7936 26.8907C47.7936 29.0479 49.4669 30.6369 51.5208 30.6369C53.5739 30.6369 55.2472 29.0479 55.2472 26.8907C55.2472 24.7194 53.5739 23.1444 51.5208 23.1444ZM59.65 29.1606C58.5249 29.1606 57.5542 28.2243 57.5542 26.8907C57.5542 25.5421 58.5249 24.6198 59.65 24.6198C60.7752 24.6198 61.745 25.5421 61.745 26.8907C61.745 28.2243 60.7752 29.1606 59.65 29.1606ZM59.65 23.1444C57.597 23.1444 55.9237 24.7194 55.9237 26.8907C55.9237 29.0479 57.597 30.6369 59.65 30.6369C61.7031 30.6369 63.3764 29.0479 63.3764 26.8907C63.3764 24.7194 61.7031 23.1444 59.65 23.1444Z" fill="black"/>
</svg>
