<svg width="966" height="67" viewBox="0 0 966 67" fill="none" xmlns="http://www.w3.org/2000/svg">
<mask id="mask0_13252_24480" style="mask-type:alpha" maskUnits="userSpaceOnUse" x="0" y="0" width="966" height="67">
<path d="M84.1967 0.813716C85.2912 0.278318 86.4936 0 87.712 0L878.521 0C879.731 0 880.926 0.274554 882.015 0.80299L959.1 38.2188C963.235 40.2258 965.86 44.4181 965.86 49.0143V59C965.86 63.4183 962.278 67 957.86 67H8.00012C3.58186 67 0.000147196 63.4183 0.000116831 59.0001L5.14663e-05 49.4888C1.99705e-05 44.9059 2.61032 40.7231 6.72711 38.7093L84.1967 0.813716Z" fill="#D9D9D9"/>
</mask>
<g mask="url(#mask0_13252_24480)">
<path d="M84.1967 0.813716C85.2912 0.278318 86.4936 0 87.712 0L878.521 0C879.731 0 880.926 0.274554 882.015 0.80299L959.1 38.2188C963.235 40.2258 965.86 44.4181 965.86 49.0143V59C965.86 63.4183 962.278 67 957.86 67H8.00012C3.58186 67 0.000147196 63.4183 0.000116831 59.0001L5.14663e-05 49.4888C1.99705e-05 44.9059 2.61032 40.7231 6.72711 38.7093L84.1967 0.813716Z" fill="#785840"/>
<path d="M84.1967 0.813716C85.2912 0.278318 86.4936 0 87.712 0L878.521 0C879.731 0 880.926 0.274554 882.015 0.80299L959.1 38.2188C963.235 40.2258 965.86 44.4181 965.86 49.0143V59C965.86 63.4183 962.278 67 957.86 67H8.00012C3.58186 67 0.000147196 63.4183 0.000116831 59.0001L5.14663e-05 49.4888C1.99705e-05 44.9059 2.61032 40.7231 6.72711 38.7093L84.1967 0.813716Z" fill="url(#paint0_radial_13252_24480)"/>
<g filter="url(#filter0_i_13252_24480)">
<rect x="-0.139648" y="43" width="966" height="24" fill="url(#paint1_linear_13252_24480)"/>
</g>
<g filter="url(#filter1_f_13252_24480)">
<rect x="-0.139648" y="38" width="966" height="9" fill="#C78B66" fill-opacity="0.7"/>
</g>
<g filter="url(#filter2_f_13252_24480)" style="mix-blend-mode:plus-darker">
<rect x="-0.139648" y="41" width="966" height="3" fill="#D49769" fill-opacity="0.53"/>
</g>
<g filter="url(#filter3_f_13252_24480)" style="mix-blend-mode:plus-darker">
<rect x="-0.139648" y="45" width="966" height="3" fill="white" fill-opacity="0.7"/>
</g>
<g filter="url(#filter4_f_13252_24480)" style="mix-blend-mode:plus-darker">
<rect x="-0.139648" y="10" width="966" height="11" fill="#785840" fill-opacity="0.2"/>
</g>
<g filter="url(#filter5_f_13252_24480)" style="mix-blend-mode:plus-darker">
<rect x="-0.139648" y="24" width="966" height="11" fill="#785840" fill-opacity="0.2"/>
</g>
<g filter="url(#filter6_f_13252_24480)" style="mix-blend-mode:soft-light">
<rect x="-0.139648" y="38" width="23" height="10" fill="white" fill-opacity="0.5"/>
</g>
<g filter="url(#filter7_f_13252_24480)" style="mix-blend-mode:soft-light">
<rect x="942.86" y="38" width="23" height="10" fill="white" fill-opacity="0.5"/>
</g>
</g>
<defs>
<filter id="filter0_i_13252_24480" x="-0.139648" y="41" width="966" height="26" filterUnits="userSpaceOnUse" color-interpolation-filters="sRGB">
<feFlood flood-opacity="0" result="BackgroundImageFix"/>
<feBlend mode="normal" in="SourceGraphic" in2="BackgroundImageFix" result="shape"/>
<feColorMatrix in="SourceAlpha" type="matrix" values="0 0 0 0 0 0 0 0 0 0 0 0 0 0 0 0 0 0 127 0" result="hardAlpha"/>
<feOffset dy="-2"/>
<feGaussianBlur stdDeviation="4"/>
<feComposite in2="hardAlpha" operator="arithmetic" k2="-1" k3="1"/>
<feColorMatrix type="matrix" values="0 0 0 0 0.62207 0 0 0 0 0.332139 0 0 0 0 0.107117 0 0 0 1 0"/>
<feBlend mode="normal" in2="shape" result="effect1_innerShadow_13252_24480"/>
</filter>
<filter id="filter1_f_13252_24480" x="-14.1396" y="24" width="994" height="37" filterUnits="userSpaceOnUse" color-interpolation-filters="sRGB">
<feFlood flood-opacity="0" result="BackgroundImageFix"/>
<feBlend mode="normal" in="SourceGraphic" in2="BackgroundImageFix" result="shape"/>
<feGaussianBlur stdDeviation="7" result="effect1_foregroundBlur_13252_24480"/>
</filter>
<filter id="filter2_f_13252_24480" x="-5.13965" y="36" width="976" height="13" filterUnits="userSpaceOnUse" color-interpolation-filters="sRGB">
<feFlood flood-opacity="0" result="BackgroundImageFix"/>
<feBlend mode="normal" in="SourceGraphic" in2="BackgroundImageFix" result="shape"/>
<feGaussianBlur stdDeviation="2.5" result="effect1_foregroundBlur_13252_24480"/>
</filter>
<filter id="filter3_f_13252_24480" x="-5.13965" y="40" width="976" height="13" filterUnits="userSpaceOnUse" color-interpolation-filters="sRGB">
<feFlood flood-opacity="0" result="BackgroundImageFix"/>
<feBlend mode="normal" in="SourceGraphic" in2="BackgroundImageFix" result="shape"/>
<feGaussianBlur stdDeviation="2.5" result="effect1_foregroundBlur_13252_24480"/>
</filter>
<filter id="filter4_f_13252_24480" x="-5.13965" y="5" width="976" height="21" filterUnits="userSpaceOnUse" color-interpolation-filters="sRGB">
<feFlood flood-opacity="0" result="BackgroundImageFix"/>
<feBlend mode="normal" in="SourceGraphic" in2="BackgroundImageFix" result="shape"/>
<feGaussianBlur stdDeviation="2.5" result="effect1_foregroundBlur_13252_24480"/>
</filter>
<filter id="filter5_f_13252_24480" x="-5.13965" y="19" width="976" height="21" filterUnits="userSpaceOnUse" color-interpolation-filters="sRGB">
<feFlood flood-opacity="0" result="BackgroundImageFix"/>
<feBlend mode="normal" in="SourceGraphic" in2="BackgroundImageFix" result="shape"/>
<feGaussianBlur stdDeviation="2.5" result="effect1_foregroundBlur_13252_24480"/>
</filter>
<filter id="filter6_f_13252_24480" x="-8.13965" y="30" width="39" height="26" filterUnits="userSpaceOnUse" color-interpolation-filters="sRGB">
<feFlood flood-opacity="0" result="BackgroundImageFix"/>
<feBlend mode="normal" in="SourceGraphic" in2="BackgroundImageFix" result="shape"/>
<feGaussianBlur stdDeviation="4" result="effect1_foregroundBlur_13252_24480"/>
</filter>
<filter id="filter7_f_13252_24480" x="934.86" y="30" width="39" height="26" filterUnits="userSpaceOnUse" color-interpolation-filters="sRGB">
<feFlood flood-opacity="0" result="BackgroundImageFix"/>
<feBlend mode="normal" in="SourceGraphic" in2="BackgroundImageFix" result="shape"/>
<feGaussianBlur stdDeviation="4" result="effect1_foregroundBlur_13252_24480"/>
</filter>
<radialGradient id="paint0_radial_13252_24480" cx="0" cy="0" r="1" gradientUnits="userSpaceOnUse" gradientTransform="translate(469.36) rotate(90) scale(45.5 403.05)">
<stop stop-color="#785840"/>
<stop offset="1" stop-color="#EBB286"/>
</radialGradient>
<linearGradient id="paint1_linear_13252_24480" x1="482.86" y1="43" x2="482.86" y2="67" gradientUnits="userSpaceOnUse">
<stop stop-color="#D78C54"/>
<stop offset="1" stop-color="#DC9E6F"/>
</linearGradient>
</defs>
</svg>
