<svg width="106" height="20" viewBox="0 0 106 20" fill="none" xmlns="http://www.w3.org/2000/svg">
<path d="M13.3631 4.70887C13.3631 2.10823 11.2548 0 8.65418 0C6.05355 0 3.94531 2.10823 3.94531 4.70887H13.3631Z" fill="#6EB974"/>
<path d="M0.0298271 4.70898L17.3066 4.70898L17.3066 8.65407L0.0298269 8.65407L0.0298271 4.70898Z" fill="#3F6D5B"/>
<path d="M3.94531 4.70901L3.94531 20L0.000225306 20L0.000226642 4.70901L3.94531 4.70901Z" fill="#3F6D5B"/>
<path d="M3.94531 4.70901L3.94531 20L0.000225306 20L0.000226642 4.70901L3.94531 4.70901Z" fill="#3F6D5B"/>
<path d="M17.3086 4.70901L17.3086 20L13.3635 20L13.3635 4.70901L17.3086 4.70901Z" fill="#3F6D5B"/>
<path d="M0.0298271 16.0547L17.3066 16.0547L17.3066 19.9998L0.0298269 19.9998L0.0298271 16.0547Z" fill="#3F6D5B"/>
<path d="M41.0448 19.2963H35.8827L32.933 15.1666L29.9095 19.2963H24.8457L30.2905 12.4012L24.9317 5.49389H30.0938L32.9944 9.54981L35.9073 5.49389H40.9834L35.6123 12.2906L41.0448 19.2963Z" fill="white"/>
<path d="M51.8114 15.6951V12.8191C51.2133 12.8683 50.566 12.9379 49.8695 13.0281C49.173 13.11 48.6445 13.2083 48.284 13.323C47.8415 13.4623 47.5015 13.6672 47.2639 13.9376C47.0345 14.1998 46.9197 14.548 46.9197 14.9823C46.9197 15.2691 46.9443 15.5026 46.9935 15.6829C47.0427 15.8631 47.1656 16.0352 47.3622 16.1991C47.5507 16.3629 47.776 16.4858 48.0382 16.5678C48.3004 16.6415 48.7101 16.6784 49.2673 16.6784C49.7097 16.6784 50.1563 16.5883 50.6069 16.408C51.0658 16.2277 51.4673 15.9901 51.8114 15.6951ZM51.8114 17.8337C51.5738 18.014 51.2788 18.2311 50.9265 18.4851C50.5742 18.7391 50.2423 18.9399 49.931 19.0874C49.4967 19.284 49.046 19.4274 48.579 19.5175C48.1119 19.6159 47.5998 19.665 47.0427 19.665C45.7316 19.665 44.6337 19.2594 43.7488 18.4483C42.8638 17.6371 42.4214 16.6006 42.4214 15.3387C42.4214 14.3309 42.6467 13.5074 43.0973 12.8683C43.548 12.2292 44.1871 11.7253 45.0147 11.3565C45.8341 10.9878 46.8501 10.7256 48.0628 10.5699C49.2755 10.4143 50.5332 10.2995 51.836 10.2258V10.1521C51.836 9.39003 51.5247 8.86563 50.9019 8.57885C50.2792 8.28387 49.3615 8.13638 48.1488 8.13638C47.4196 8.13638 46.6412 8.26748 45.8136 8.52968C44.986 8.78369 44.392 8.98034 44.0314 9.11964H43.6258V5.78886C44.0929 5.66596 44.8508 5.52257 45.8996 5.35869C46.9566 5.18662 48.0136 5.10059 49.0706 5.10059C51.5861 5.10059 53.401 5.48979 54.5154 6.2682C55.6379 7.03842 56.1992 8.2511 56.1992 9.90624V19.2963H51.8114V17.8337Z" fill="white"/>
<path d="M72.1771 19.2963H59.2104V16.4572L66.4865 8.72633H59.5054V5.49389H72.0419V8.28387L64.8764 16.0024H72.1771V19.2963Z" fill="white"/>
<path d="M89.1505 19.2963H84.7013V12.4504C84.7013 11.8932 84.6726 11.3402 84.6152 10.7912C84.5579 10.234 84.4595 9.8243 84.3203 9.5621C84.1564 9.25893 83.9147 9.0377 83.5951 8.8984C83.2837 8.75911 82.8454 8.68946 82.28 8.68946C81.8785 8.68946 81.4688 8.75501 81.0509 8.88611C80.6412 9.01721 80.1947 9.22616 79.7113 9.51294V19.2963H75.2866V5.49389H79.7113V7.01793C80.4979 6.4034 81.2517 5.93225 81.9727 5.6045C82.702 5.27675 83.5091 5.11288 84.394 5.11288C85.8853 5.11288 87.0488 5.54715 87.8846 6.41569C88.7285 7.28423 89.1505 8.58294 89.1505 10.3118V19.2963Z" fill="white"/>
<path d="M101.589 15.6951V12.8191C100.991 12.8683 100.343 12.9379 99.6467 13.0281C98.9502 13.11 98.4218 13.2083 98.0612 13.323C97.6188 13.4623 97.2787 13.6672 97.0411 13.9376C96.8117 14.1998 96.697 14.548 96.697 14.9823C96.697 15.2691 96.7215 15.5026 96.7707 15.6829C96.8199 15.8631 96.9428 16.0352 97.1394 16.1991C97.3279 16.3629 97.5532 16.4858 97.8154 16.5678C98.0776 16.6415 98.4873 16.6784 99.0445 16.6784C99.4869 16.6784 99.9335 16.5883 100.384 16.408C100.843 16.2277 101.245 15.9901 101.589 15.6951ZM101.589 17.8337C101.351 18.014 101.056 18.2311 100.704 18.4851C100.351 18.7391 100.02 18.9399 99.7082 19.0874C99.2739 19.284 98.8232 19.4274 98.3562 19.5175C97.8892 19.6159 97.377 19.665 96.8199 19.665C95.5089 19.665 94.4109 19.2594 93.526 18.4483C92.641 17.6371 92.1986 16.6006 92.1986 15.3387C92.1986 14.3309 92.4239 13.5074 92.8746 12.8683C93.3252 12.2292 93.9643 11.7253 94.7919 11.3565C95.6113 10.9878 96.6273 10.7256 97.84 10.5699C99.0527 10.4143 100.31 10.2995 101.613 10.2258V10.1521C101.613 9.39003 101.302 8.86563 100.679 8.57885C100.056 8.28387 99.1387 8.13638 97.926 8.13638C97.1968 8.13638 96.4184 8.26748 95.5908 8.52968C94.7632 8.78369 94.1692 8.98034 93.8087 9.11964H93.4031V5.78886C93.8701 5.66596 94.628 5.52257 95.6768 5.35869C96.7338 5.18662 97.7908 5.10059 98.8478 5.10059C101.363 5.10059 103.178 5.48979 104.293 6.2682C105.415 7.03842 105.976 8.2511 105.976 9.90624V19.2963H101.589V17.8337Z" fill="white"/>
</svg>
