<svg width="573" height="145" viewBox="0 0 573 145" fill="none" xmlns="http://www.w3.org/2000/svg">
<path d="M572.9 135.4C572.9 138.4 571.3 141.2 568.6 142.5C564.4 144.5 558 145 553.3 142.4C551.6 141.4 552.2 140.6 552.9 139.5C553.5 138.6 553.7 137.1 555.4 138.2C557.1 139.3 558.8 139.7 560.7 140C562.6 140.3 563.9 140.2 565.3 139.5C566.9 138.7 567.9 137.5 567.8 135.7C567.7 133.8 566.4 132.8 564.7 132.4C561.8 131.7 558.9 131.8 555.9 131.9C554.2 131.9 553.7 131.6 554.1 129.7C554.7 126.2 555 122.7 555.2 119.1C555.4 115.5 555.7 116.9 558.3 117.3C562.2 117.8 566.2 117.8 570 117.3C573.8 116.8 572.4 118.1 572.4 119.3C572.4 120.3 572.9 121.7 570.9 121.6C567.7 121.5 564.6 121.6 561.4 121.6C560 121.6 559.5 122 559.5 123.4C559.3 127.6 559.2 127.6 563.5 127.8C567.9 127.9 572.5 130.4 573 134.1V135.6L572.9 135.4Z" fill="#065056"/>
<path d="M572.9 51.7C571.3 54.2 569.5 56.4 566.1 56.4C562.6 56.4 559.7 54.2 559.1 50.9C558.6 47.8 560.7 44.4 563.9 43.4C567.3 42.3 570.5 43.6 572.1 46.8C572.3 47.2 572.1 47.9 572.9 48.1V51.8V51.7Z" fill="#065056"/>
<path d="M388.9 48.7001C399.8 53.1001 404 62.1001 405.5 72.6001C406.7 80.4001 405.2 87.8001 400.4 94.3001C396.8 99.1001 391.9 101.8 386 102.1C374.9 102.7 363.7 102.2 352.6 102.4C351.5 102.4 351 102 351.1 100.9C351.1 100.5 351.1 100.1 351.1 99.7001C351.1 67.7001 351.1 35.7001 351.1 3.70009C351.1 1.70009 351.5 1.1001 353.6 1.1001C361.3 1.4001 368.9 0.800092 376.6 1.50009C380.2 1.90009 383.8 2.60009 387.2 3.90009C399.3 8.50009 406.2 22.4001 402.4 34.7001C400.3 41.5001 395.4 45.8001 389 48.6001L388.9 48.7001ZM365 75.1001V95.0001C365 97.8001 366.4 99.1001 369.2 98.9001C378.8 98.3001 384.1 93.9001 386.2 84.5001C387.8 77.5001 387.5 70.6001 385.1 63.8001C382.1 55.0001 376.8 51.4001 367.5 51.3001C365.5 51.3001 364.8 51.7001 364.9 53.8001C365.1 60.9001 364.9 68.0001 364.9 75.1001H365ZM365 26.0001C365 31.5001 365 36.9001 365 42.4001C365 47.9001 365 47.8001 370.5 47.8001C378.8 47.8001 384.6 43.4001 386.6 35.3001C388 29.6001 387.3 24.0001 385.5 18.5001C382.6 9.70009 376.4 5.10009 367 4.80009C365.4 4.80009 364.9 5.10009 364.9 6.80009C365 13.2001 364.9 19.6001 364.9 26.0001H365Z" fill="#065056"/>
<path d="M160 1.20006C166.6 1.20006 172.8 1.20006 179 1.20006C180.5 1.20006 180.7 2.10007 181.2 3.10007C186.1 13.6001 191 24.2001 196 34.7001C196.2 35.2001 196.5 35.7001 196.7 36.2001C197.6 35.8001 197.8 34.9001 198.3 34.2001C205.2 23.8001 212 13.3001 218.8 2.80007C219.6 1.60007 220.3 1.10006 221.8 1.20006C224.5 1.30006 227.2 1.20006 229.9 1.20006C230.2 2.30006 229.4 2.80007 229 3.50007C220.3 17.2001 211.6 30.8001 202.8 44.4001C201.9 45.8001 201.8 46.8001 202.5 48.3001C210.6 65.4001 218.6 82.6001 226.5 99.8001C226.8 100.5 227.4 101.1 227.1 102.1C220.9 102.1 214.6 102.1 208.4 102.1C207.1 102.1 207 101.1 206.6 100.4C201.4 89.3001 196.2 78.2001 191 67.2001C190.6 66.4001 190.3 65.7001 189.9 65.0001C189 65.4001 188.7 66.3001 188.3 67.0001C180.9 78.1001 173.6 89.3001 166.3 100.4C165.5 101.7 164.6 102.3 163 102.2C160.3 102.1 157.6 102.2 154.9 102.2C155 101.1 155.7 100.5 156.1 99.8001C165.4 85.4001 174.8 70.9001 184.2 56.5001C185.1 55.1001 185.2 54.0001 184.4 52.5001C176.6 36.5001 168.9 20.5001 161.5 4.30007C161.1 3.40007 160.7 2.50007 160.2 1.30007L160 1.20006Z" fill="#065056"/>
<path d="M521.5 76.1001C526.6 71.4001 531.2 67.2001 535.7 62.9001C536.7 61.9001 537.7 61.4001 539.2 61.4001C542.2 61.4001 545.2 61.4001 548.3 61.4001C548.2 62.4001 547.4 62.8001 546.9 63.3001C542.5 67.4001 538.2 71.6001 533.7 75.7001C532.5 76.8001 532.5 77.4001 533.6 78.6001C539.8 85.5001 546 92.4001 552.1 99.3001C552.8 100.1 553.6 101 554.6 102.2C548.5 102.2 542.8 102.2 537.1 102.2C536.2 102.2 535.8 101.5 535.3 101C531.4 96.8001 527.5 92.6001 523.7 88.4001C523.2 87.9001 522.8 87.2001 522.3 86.6001C522.1 86.7001 521.8 86.8001 521.6 86.9001C521.6 90.5001 521.6 94.2001 521.6 97.8001C521.6 101.4 521.6 102.1 517.3 102.1C514.7 102.1 512.2 102.1 509.6 102.1C508.2 102.1 507.8 101.6 508 100.4C508 99.9001 508 99.3001 508 98.8001C508 67.1001 508 35.4001 508 3.70009C508 1.80009 508.3 0.900102 510.5 1.1001C513.4 1.3001 516.4 1.3001 519.3 1.1001C521.3 1.0001 521.7 1.6001 521.7 3.5001C521.7 26.6001 521.7 49.8001 521.7 72.9001C521.7 96.0001 521.7 74.6001 521.7 76.0001L521.5 76.1001Z" fill="#065056"/>
<path d="M332 97.8C327.5 102.5 322.3 103.2 316.7 102.1C311.2 101.1 306.8 98.3 303.3 94C297.1 86.4 296.9 76.7 302.9 69.9C310.7 61 321.8 59.3 331.8 65.4C332.3 61.5 332.3 61.5 336.5 61.5C339 61.5 342.3 60.4 343.9 62C345.3 63.4 344.3 66.7001 344.3 69.1001C344.3 87.1001 344.3 105 344.3 123C344.3 124.8 343.8 125.4 342 125.3C339.4 125.1 336.7 125.1 334.1 125.3C332.3 125.4 331.9 124.7 332 123.1C332 115.6 332 108.1 332 100.7V97.9V97.8ZM332.2 80C332.2 76.8 332 73.5 330.9 70.5C329.4 66.6 325.8 63.7 322.3 63.9C318.2 64.1 316.3 66.9 315 70.4C313 75.8 313.2 81.4001 313.9 87.1001C314.3 90.4001 315.2 93.6 317 96.4C319.6 100.5 323.5 101 327.2 97.8C328.8 96.4 329.8 94.6001 330.5 92.6001C331.8 88.5001 332.3 84.3001 332.3 80.1001L332.2 80Z" fill="#065056"/>
<path d="M279.6 51.7001C279.6 35.7001 279.6 19.6001 279.6 3.60009C279.6 1.70009 280.1 1.10008 282 1.20008C284.9 1.40008 287.9 1.40008 290.8 1.20008C292.8 1.10008 293.2 1.70009 293.2 3.60009C293.2 32.3001 293.2 61.0001 293.2 89.7001C293.2 93.3001 293.2 97.0001 293.2 100.6C293.2 101.9 292.8 102.3 291.5 102.2C288.3 102.2 285 102.1 281.7 102.2C279.9 102.2 279.5 101.8 279.6 100C279.6 83.9001 279.6 67.8001 279.6 51.6001V51.7001Z" fill="#065056"/>
<path d="M458.4 81.7001C458.4 75.7001 458.4 69.7001 458.4 63.7001C458.4 62.1001 458.7 61.3001 460.5 61.4001C463.7 61.6001 467 61.4001 470.2 61.4001C470.8 61.4001 471.8 61.1001 471.8 61.8001C472.1 64.1001 473.1 62.8001 474 62.4001C480.5 59.9001 487 59.7001 493.4 62.4001C498.1 64.3001 500.6 68.0001 500.6 73.3001C500.6 82.3001 500.6 91.3001 500.6 100.4C500.6 101.9 500.2 102.4 498.7 102.3C495.5 102.2 492.2 102.2 489 102.3C487.6 102.3 487.2 101.9 487.2 100.5C487.2 92.4001 487.2 84.3001 487.2 76.2001C487.2 73.8001 487.1 71.4001 486.8 69.1001C486.5 66.2001 484.4 64.4001 481.5 64.2001C476.2 63.8001 472 67.6001 472 72.9001C472 82.0001 472 91.1001 472 100.2C472 101.9 471.6 102.5 469.9 102.4C466.7 102.2 463.6 102.3 460.4 102.4C458.8 102.4 458.3 102.1 458.3 100.4C458.4 94.2001 458.3 88.1001 458.3 81.9001L458.4 81.7001Z" fill="#065056"/>
<path d="M258.6 77.8C258.6 74.9 258.9 72 258.3 69.1C257.7 66.2 256 64.7 253 64.5C249.9 64.3 247 65.2 244.2 66.2C242.3 66.9 240.4 67.6 238.6 68.3C237.9 68.6 237.5 68.4 237.3 67.6C237.1 66.9 236.6 66.3 237.7 65.9C245.9 62.9 254.1 59.8 263.1 62.2C265.2 62.8 267.2 63.7 268.9 65C271 66.7 272.1 68.7 272.1 71.6C272.1 81.1 272.1 90.6 272.1 100C272.1 101.6 271.7 102.2 270.1 102.1C267 102 263.9 102.1 260.8 102.1C259.8 102.1 258.7 102.6 258.5 100.7C258.5 99.7 257.4 100.7 256.9 100.9C250.8 103.4 244.9 103.2 238.9 100.6C237.3 99.9 235.9 99 234.7 97.8C230.7 94.1 229.7 89.1 232.4 84.4C235.4 79 240.1 76.1 246.2 75.6C250 75.3 253.8 75.6 257.3 77.5C257.7 77.7 258.1 78 258.7 77.7L258.6 77.8ZM258.6 89.3C258.6 87.8 258.6 86.2 258.6 84.7C258.6 81.3 257.6 80 254.3 79C251.8 78.2 249.6 78.8 247.8 80.7C243.8 85 243.7 93.4 247.7 97.7C249.7 99.8 252.3 100.5 254.8 99.6C258 98.4 258.6 97.4 258.6 93.7C258.6 92.2 258.6 90.8 258.6 89.3Z" fill="#065056"/>
<path d="M451.1 85.5C451.1 90.5 451.1 95.5 451.1 100.5C451.1 101.8 450.8 102.2 449.5 102.2C446 102.2 442.5 102.2 439.1 102.2C438.6 102.2 437.7 102.6 437.7 101.6C437.7 100.2 437.1 100.6 436.3 100.9C430.6 103.5 424.7 103.3 418.9 101.2C413.7 99.3 410.7 95.5 410.3 90C409.9 84.3 412.7 80.4 417.6 78C423.4 75.2 429.4 74.8 435.4 77.1C437.6 77.9 437.8 77.3 437.7 75.4C437.6 73.9 437.7 72.3 437.7 70.8C437.5 66.2 434.8 63.9 430.2 64.4C426.1 64.8 422.3 66.5 418.5 68C417.7 68.3 416.9 69.1 416.3 67.6C415.6 66.1 416.7 65.9 417.6 65.6C424.7 62.7 431.9 60.7 439.7 61.8C441.8 62.1 443.8 62.7 445.6 63.6C449.4 65.4 451.5 68 451.2 72.5C450.9 76.8 451.2 81.1 451.2 85.4L451.1 85.5ZM437.6 89.3C437.6 87.3 437.6 85.3 437.6 83.3C437.6 82.6 437.6 81.9 437.1 81.3C434.6 77.6 428.9 77.6 426.4 81.3C424.4 84.3 423.6 87.7 423.8 91.2C424 94.1 425.2 96.6 427.4 98.5C429.6 100.4 432 100.3 434.6 99.3C437.1 98.3 437.9 96.5 437.6 94C437.4 92.5 437.6 90.9 437.6 89.4V89.3Z" fill="#065056"/>
<path d="M121.3 18C117.1 20.6 113.2 22.9 109.4 25.3C103.5 29.1 98.0001 33.2 92.8001 37.9C81.7001 48.1 76.3001 61.1 74.6001 75.8C73.6001 84.2 73.3001 92.5 73.2001 101.1C72.9001 100.9 72.7001 100.8 72.7001 100.6C69.4001 89.7 66.3001 78.7 65.7001 67.3C64.9001 52.8 70.5001 41.6 82.7001 33.6C94.3001 26 107 21.4 120.3 17.9C120.4 17.9 120.6 17.9 121.2 17.9L121.3 18Z" fill="#065056"/>
<path d="M108.2 1.30008C97.6 12.0001 86.5 22.0001 72 27.3001C60 31.7001 48.6 30.3001 38 23.0001C29 16.8001 21 9.40009 13.4 1.60009C13.2 1.40009 13.1 1.10007 12.9 0.900074C13.9 0.500074 14.4 1.20009 15.1 1.60009C21.3 4.90009 27.5 8.20008 33.8 11.2001C49.9 18.9001 66.3 18.9001 82.9 13.1001C91.7 10.0001 99.9 5.70008 107.9 1.00008C108 1.10008 108.1 1.20008 108.2 1.30008Z" fill="#065056"/>
<path d="M48.8 101.4C48.8 91.8 48.5 82.6 47.3 73.4C45.5 59.7 39.8 48.1 29.3 38.9C20.9 31.5 11.7 25.4 2.30003 19.3C1.90003 19.1 1.60002 18.8 0.900024 18.4C1.70002 18.4 2.10002 18.4 2.40002 18.4C12.2 21.5 22.1 24.3 31.3 29C36.9 31.9 42.1 35.4 46.3 40.1C53.6 48.2 56 58 55.4 68.6C54.7 79.4 51.7 89.8 49.3 100.3C49.3 100.6 49 100.8 48.7 101.4H48.8Z" fill="#065056"/>
<path d="M572.3 61.5001C572.3 75.0001 572.3 88.6001 572.3 102.1C568.4 102.1 564.6 102.1 560.7 102.1C559.4 102.1 559.2 101.7 559.2 100.5C559.2 88.0001 559.2 75.5001 559.2 63.0001C559.2 61.7001 559.6 61.3 560.9 61.3C564.7 61.4 568.5 61.3 572.3 61.3V61.5001Z" fill="#065056"/>
<path d="M465.6 134C463 134 460.5 134.1 457.9 134C455.8 133.9 456.1 134.8 456.8 136C458.7 139.5 464.7 140.8 468.6 138.5C469.3 138.1 469.9 137 470.7 137.5C471.7 138.1 472.4 139.2 473.2 140.2C473.7 140.8 473.1 141.2 472.7 141.5C469.2 145.2 460.8 145.6 455.8 142.4C450.9 139.3 449 133.2 451.2 127.3C453.2 122 459.2 118.8 465.2 119.9C471.1 120.9 475 125.7 475.2 131.8C475.2 133.6 474.8 134.3 472.9 134.1C470.4 133.9 468 134.1 465.5 134.1L465.6 134ZM462.9 130C464.7 130 466.6 130 468.4 130C469.6 130 469.6 129.6 469.3 128.6C468.4 125.8 466.1 124.4 462.6 124.3C459.8 124.3 457.2 126.1 456.3 128.5C456 129.5 456.1 129.9 457.2 129.9C459 129.9 460.9 129.9 462.7 129.9L462.9 130Z" fill="#065056"/>
<path d="M523 129.9C526 131.8 527.8 134.2 527 137.7C526.2 141.4 523.6 143.2 520.1 144C516.5 144.8 512.9 144.8 509.4 143.1C504.1 140.5 503.3 134.4 507.8 130.6C508.8 129.8 508.6 129.6 507.8 128.8C504.7 125.6 505.2 120.9 508.9 118.4C512.7 115.9 519 115.9 522.8 118.4C527 121.2 527.1 126.3 522.8 129.8L523 129.9ZM515.9 140.5C516.8 140.4 517.7 140.3 518.5 140.1C520.6 139.6 521.9 138.3 521.9 136.1C521.9 133.9 520.5 132.8 518.6 132.2C516.8 131.7 514.9 131.6 513.1 132.2C511.3 132.8 510.1 134.1 510.1 136.1C510.1 138.2 511.3 139.3 513.2 139.9C514.1 140.2 515 140.2 515.9 140.4V140.5ZM516.2 128.1C519.2 128.1 521.2 126.7 521.2 124.5C521.2 122.3 519.3 120.8 516.3 120.7C515 120.7 513.7 120.9 512.6 121.6C510.8 122.8 510.4 125.4 511.9 126.8C513.1 127.9 514.6 128.1 516.2 128.1Z" fill="#065056"/>
<path d="M400.6 122.8C404.1 119.8 407.8 119 411.7 120C416.2 121.1 418.8 124.1 419 128.7C419.2 133.4 419 138.1 419.1 142.8C419.1 144 418.7 144.2 417.6 144.2C413.2 144.4 413.2 144.4 413.2 140.1C413.2 137 413.2 133.9 413.2 130.9C413.2 126.8 411.3 124.8 407.6 124.7C403.7 124.7 401 126.9 400.9 130.8C400.8 134.6 400.8 138.4 400.9 142.1C400.9 143.7 400.6 144.2 398.9 144.2C395 144.2 395 144.2 395 140.3C395 134.4 395 128.4 395 122.5C395 120.4 395.5 119.7 397.7 119.8C399.5 119.9 401.2 119.7 400.6 122.7V122.8Z" fill="#065056"/>
<path d="M367.7 119.7C370.2 119.7 372.6 120.2 374.9 121C376.2 121.4 376.4 122 375.8 123.2C374.9 125.1 374.3 126.5 371.7 125.1C369.4 124 366.8 123.9 364.2 124.8C363.1 125.2 362.3 125.8 362.3 127.1C362.3 128.3 363.2 128.9 364.2 129.1C366.8 129.7 369.5 130.2 372.1 130.9C374.7 131.6 376.8 133 377.2 136C377.6 139 376.3 141.4 373.3 143C372.4 143.5 371.3 144 370.3 144.2C365.9 145 361.7 144.5 357.6 142.8C356 142.2 355.9 141.3 356.8 140.1C357.5 139.2 357.2 136.9 359.7 138.3C362.5 139.9 365.6 140.1 368.7 139.8C370.2 139.6 371.5 139.1 371.6 137.4C371.6 135.8 370.2 135.5 369 135.2C366.7 134.7 364.3 134.4 362 133.8C358.6 132.9 356.9 131.1 356.7 128.2C356.4 124.9 357.9 122.6 361.1 121.1C362.9 120.3 365 119.9 367.7 119.9V119.7Z" fill="#065056"/>
<path d="M437.7 119.7C441.5 119.7 444.6 120.9 447 123.9C447.8 124.9 447.9 125.5 446.6 126.2C444.8 127.2 443.5 128 441.5 126C438.9 123.5 434.1 124.3 431.7 127.1C429.4 129.9 429.7 135.2 432.3 137.7C435 140.2 439.5 140.1 442.2 137.6C442.7 137.1 442.9 136 444 136.6C445.2 137.3 446.6 137.7 447.4 138.8C447.7 139.2 447.1 139.8 446.8 140.2C444.2 143.7 438.5 145.3 433.5 144C428.6 142.7 425 138.8 424.4 134.3C423.4 125.7 428.7 119.6 437.5 119.6L437.7 119.7Z" fill="#065056"/>
<path d="M540.4 117.1C543.3 117.1 546.3 117.1 549.2 117.1C550.7 117.1 551.1 117.6 551 119C551 120 550.6 121 550.2 121.9C547.1 128.9 543.9 135.9 540.8 143C540.3 144.1 536 145.1 535.3 144.2C534.8 143.6 535.4 142.9 535.7 142.3C538.4 136.1 541.1 129.9 544 123.8C544.9 121.9 544.5 121.4 542.5 121.6C540.6 121.7 538.6 121.7 536.7 121.6C535 121.5 534.3 121.9 534.5 123.7C534.5 124.4 535 125.7 534.1 126C532.9 126.3 531.5 126.1 530.2 126C529.7 126 529.8 125.2 529.8 124.8C529.8 122.8 529.8 120.8 529.8 118.8C529.8 117.5 530.3 117.3 531.4 117.3C534.4 117.3 537.4 117.3 540.4 117.3V117.1Z" fill="#065056"/>
<path d="M499.9 130.8C499.9 134.6 499.9 138.5 499.9 142.3C499.9 143.7 499.6 144.2 498.1 144.2C493.9 144.1 494.7 144.6 494.7 140.8C494.7 135.2 494.6 129.6 494.7 123.9C494.7 121.7 494 121 492 121.3C491.8 121.3 491.5 121.3 491.3 121.3C489.2 121.3 488.1 119.4 489 117.5C489.4 116.7 490 117 490.6 117C493.1 117 495.7 117 498.2 117C499.6 117 499.8 117.6 499.8 118.8C499.8 122.8 499.8 126.8 499.8 130.8H499.9Z" fill="#065056"/>
<path d="M382 126.3C383.7 126.3 384.8 126.3 386.1 126.3C387.4 126.3 388.2 125.8 388 128.3C387.6 133 387.9 137.7 388 142.4C388 144.1 387.5 144.5 385.9 144.5C382 144.5 382 144.5 382 140.6C382 136.7 382 131.3 382 126.5V126.3Z" fill="#065056"/>
<path d="M385.1 117.6C387.2 117.6 388.7 119.1 388.7 121C388.7 123 387.2 124.4 384.9 124.4C382.7 124.4 381.3 123 381.3 121C381.3 119 382.9 117.5 385.1 117.6Z" fill="#065056"/>
<path d="M107.9 0.900029C108.1 0.800029 108.4 0.500029 108.6 0.900029C108.6 0.900029 108.4 1.10004 108.2 1.30004C108.1 1.20004 108 1.10004 107.9 1.00004V0.900029Z" fill="#065056"/>
</svg>
